<svg xmlns="http://www.w3.org/2000/svg" xmlns:xlink="http://www.w3.org/1999/xlink" width="1000" zoomAndPan="magnify" viewBox="0 0 750 749.999995" height="1000" preserveAspectRatio="xMidYMid meet" version="1.0"><defs><clipPath id="29db6a9fc5"><path d="M 28.25 207.554688 L 710.816406 207.554688 L 710.816406 544.644531 L 28.25 544.644531 Z M 28.25 207.554688 " clip-rule="nonzero"/></clipPath><clipPath id="79ddb3b238"><path d="M 546 392.039062 L 710.816406 392.039062 L 710.816406 544 L 546 544 Z M 546 392.039062 " clip-rule="nonzero"/></clipPath></defs><g clip-path="url(#29db6a9fc5)"><path fill="#b05023" d="M 708.121094 395.5 C 675.269531 350.953125 626.605469 323.722656 583.210938 284.09375 C 577.234375 278.636719 567.179688 266.019531 541.921875 262.738281 C 475.410156 254.109375 351.75 243.160156 342.558594 242.53125 C 333.367188 241.902344 338.058594 246.882812 338.058594 246.882812 L 363.390625 271.582031 C 363.390625 271.582031 310.175781 244.542969 306.117188 243.390625 C 302.0625 242.246094 292.84375 239.523438 289.8125 239.367188 C 218.582031 235.769531 122.644531 220.605469 48.738281 207.910156 C 27.242188 204.21875 23.757812 231.421875 33.199219 282.757812 C 36.117188 298.632812 38.78125 313.722656 41.074219 328.28125 C 41.691406 332.207031 46.308594 340.363281 55.5625 341.480469 C 64.808594 342.597656 97.390625 346.539062 97.390625 346.539062 C 97.390625 346.539062 147.332031 370.707031 145.851562 371.878906 C 144.371094 373.054688 102.042969 365.027344 102.042969 365.027344 C 102.042969 365.027344 95.355469 365.726562 90.730469 367.574219 C 85.101562 369.824219 77.804688 364.320312 71.359375 358.820312 C 65.316406 353.660156 60.03125 348.5 57.578125 349.734375 C 50.355469 353.363281 47.179688 363.289062 47.648438 367.585938 C 51.851562 406.027344 56.484375 483.863281 60.320312 521.441406 C 62.242188 540.273438 66.117188 543.097656 97.8125 542.15625 C 151.046875 540.570312 205.488281 538.347656 255.121094 536.890625 C 257.882812 536.804688 266.660156 534.738281 270.941406 532.234375 C 275.222656 529.730469 304.855469 512.390625 304.855469 512.390625 L 338.230469 506.417969 C 338.230469 506.417969 338.496094 520.78125 338.40625 530.519531 C 338.359375 535.496094 342.535156 535.285156 346.402344 535.273438 C 406.304688 535.097656 465.363281 537.105469 525.632812 543.667969 C 533.902344 544.570312 550.082031 547.128906 561.949219 537.28125 C 605.886719 500.8125 649.097656 469.554688 701.066406 442.261719 C 704.957031 440.214844 707.785156 438.050781 707.964844 434.179688 C 708.136719 430.46875 714.195312 403.734375 708.121094 395.5 " fill-opacity="1" fill-rule="nonzero"/></g><path fill="#8c411b" d="M 567.222656 532.976562 C 560.613281 530.65625 554.175781 529.257812 553.007812 529.535156 C 522.734375 536.691406 451.730469 530.285156 428.417969 529.78125 C 405.105469 529.277344 428.402344 525.402344 443.113281 524.441406 C 457.828125 523.484375 379.839844 520.40625 361.636719 520.703125 C 352.464844 520.855469 344.273438 519.785156 338.390625 518.691406 C 338.421875 522.621094 338.441406 526.890625 338.40625 530.519531 C 338.359375 535.496094 342.535156 535.285156 346.402344 535.273438 C 406.304688 535.097656 465.363281 537.105469 525.632812 543.667969 C 533.902344 544.570312 550.082031 547.128906 561.949219 537.28125 C 563.710938 535.816406 565.46875 534.417969 567.222656 532.976562 " fill-opacity="1" fill-rule="nonzero"/><path fill="#8c411b" d="M 238.078125 521.921875 C 212.109375 520.414062 166.554688 519.6875 179.40625 522.730469 C 192.257812 525.765625 161.425781 533.195312 139.277344 531.367188 C 117.128906 529.535156 69.097656 532.015625 60.652344 524.273438 C 62.734375 540.535156 67.792969 543.046875 97.816406 542.15625 C 151.046875 540.570312 205.488281 538.347656 255.121094 536.890625 C 257.882812 536.804688 266.660156 534.738281 270.941406 532.234375 C 271.828125 531.714844 273.832031 530.542969 276.398438 529.042969 C 278.691406 523.226562 280.019531 519.414062 280.019531 519.414062 C 280.019531 519.414062 264.042969 523.433594 238.078125 521.921875 " fill-opacity="1" fill-rule="nonzero"/><g clip-path="url(#79ddb3b238)"><path fill="#6e3211" d="M 701.066406 442.261719 C 704.957031 440.214844 707.785156 438.050781 707.964844 434.179688 C 708.136719 430.46875 714.195312 403.734375 708.121094 395.5 C 707.757812 395.011719 707.371094 394.550781 707.007812 394.066406 C 704.835938 392.570312 703.074219 391.765625 702.0625 392.15625 C 696.035156 394.492188 546 500.722656 546 500.722656 C 546 500.722656 549.890625 514.566406 548.910156 523.730469 C 548.355469 528.890625 547.902344 537.378906 547.613281 543.816406 C 552.570312 542.859375 557.554688 540.925781 561.949219 537.28125 C 605.886719 500.8125 649.097656 469.554688 701.066406 442.261719 " fill-opacity="1" fill-rule="nonzero"/></g><path fill="#6e3211" d="M 338.769531 211.871094 L 336.867188 244.515625 L 387.800781 247.480469 Z M 338.769531 211.871094 " fill-opacity="1" fill-rule="nonzero"/><path fill="#6e3211" d="M 375.933594 486.136719 L 427.234375 461.589844 C 427.234375 461.589844 403.121094 446.894531 355.167969 450.070312 C 307.214844 453.25 260.75 495.277344 260.75 495.277344 C 260.75 495.277344 263.6875 510.9375 263.371094 516.34375 C 263.128906 520.503906 260.359375 529.941406 260.707031 535.914062 C 264.234375 535.058594 268.382812 533.730469 270.941406 532.234375 C 275.222656 529.730469 304.855469 512.390625 304.855469 512.390625 L 338.230469 506.417969 C 338.230469 506.417969 338.570312 501.476562 339.710938 499.402344 C 340.847656 497.328125 375.933594 486.136719 375.933594 486.136719 " fill-opacity="1" fill-rule="nonzero"/><path fill="#6e3211" d="M 44.761719 297.195312 C 44.761719 297.195312 42.960938 300.140625 44.195312 306.925781 C 45.429688 313.714844 45.996094 321.453125 45.9375 325.9375 C 45.902344 328.5625 45.894531 333.246094 46.195312 337.007812 C 48.511719 339.195312 51.582031 341 55.5625 341.480469 C 64.808594 342.597656 97.390625 346.539062 97.390625 346.539062 C 97.390625 346.539062 101.199219 348.382812 106.617188 351.042969 C 127.203125 352.242188 162.75 354.3125 162.75 354.3125 L 127.976562 312.453125 L 44.761719 297.195312 " fill-opacity="1" fill-rule="nonzero"/><path fill="#ffad69" d="M 701.699219 384.519531 C 668.847656 339.972656 628.492188 291.28125 585.101562 251.652344 C 579.125 246.195312 569.070312 233.574219 543.8125 230.300781 C 477.296875 221.667969 353.640625 210.71875 344.449219 210.089844 C 335.253906 209.460938 339.949219 214.441406 339.949219 214.441406 L 365.28125 239.144531 C 365.28125 239.144531 312.066406 212.101562 308.007812 210.953125 C 303.949219 209.800781 294.734375 207.082031 291.703125 206.929688 C 220.472656 203.328125 152.417969 204.722656 77.433594 205.546875 C 73.472656 205.589844 69.777344 205.566406 66.347656 205.542969 C 36.335938 205.328125 26.5625 205.117188 35.085938 250.316406 C 38.078125 266.175781 40.671875 281.28125 42.960938 295.84375 C 43.582031 299.765625 48.199219 307.921875 57.449219 309.039062 C 66.699219 310.160156 99.277344 314.097656 99.277344 314.097656 C 99.277344 314.097656 149.222656 338.265625 147.742188 339.441406 C 146.261719 340.613281 103.933594 332.589844 103.933594 332.589844 C 103.933594 332.589844 97.246094 333.285156 92.621094 335.132812 C 81.710938 339.492188 62.644531 347.1875 57.578125 349.734375 C 50.355469 353.363281 51.777344 361.226562 52.246094 365.523438 C 56.449219 403.964844 58.375 451.425781 62.210938 489.003906 C 64.132812 507.828125 68.007812 510.65625 99.703125 509.714844 C 152.933594 508.128906 207.375 505.90625 257.011719 504.445312 C 259.773438 504.367188 268.546875 502.296875 272.832031 499.792969 C 277.113281 497.285156 306.746094 479.949219 306.746094 479.949219 L 395.605469 464.042969 C 395.605469 464.042969 353.792969 487.441406 350.441406 489.414062 C 347.089844 491.386719 342.328125 495.015625 340.296875 498.078125 C 337.542969 502.226562 344.421875 502.84375 348.292969 502.832031 C 408.195312 502.65625 467.257812 504.664062 527.523438 511.226562 C 535.792969 512.128906 551.976562 514.6875 563.835938 504.839844 C 607.777344 468.371094 650.988281 437.113281 702.953125 409.820312 C 710.574219 405.816406 714.109375 401.347656 701.699219 384.519531 " fill-opacity="1" fill-rule="nonzero"/><path fill="#e68b4e" d="M 295.410156 438.605469 C 290.796875 435.226562 280.464844 430.648438 275.511719 428.417969 C 218.195312 402.855469 179.414062 396.28125 56.027344 408.835938 C 56.21875 411.464844 56.414062 414.09375 56.601562 416.738281 C 106.5625 414.820312 159.375 410.433594 183.375 412.351562 C 199.8125 413.605469 225.480469 418.246094 240.523438 423.984375 C 258.445312 430.820312 283.222656 452.242188 231.398438 462.597656 C 192.601562 470.351562 144.109375 476.910156 62.679688 492.835938 C 63.105469 495.867188 63.664062 498.402344 64.507812 500.496094 C 101.019531 491.539062 142.871094 485.609375 181.109375 479.492188 C 257.125 467.332031 318.765625 457.089844 295.410156 438.605469 " fill-opacity="1" fill-rule="nonzero"/><path fill="#e68b4e" d="M 191.363281 506.621094 C 219.882812 497.34375 247.25 492.808594 278.425781 496.519531 C 280.941406 495.046875 283.992188 493.261719 287.179688 491.398438 C 243.980469 485.507812 213.140625 492.195312 171.332031 507.328125 C 178.039062 507.089844 184.71875 506.855469 191.363281 506.621094 " fill-opacity="1" fill-rule="nonzero"/><path fill="#e68b4e" d="M 60.226562 466.703125 C 60.382812 468.632812 60.53125 470.585938 60.691406 472.488281 C 80.492188 469.828125 100.507812 467.558594 120.238281 465.574219 C 183.324219 450.621094 170.21875 454.582031 226.613281 455.359375 C 230.277344 455.398438 233.96875 455.371094 237.804688 454.984375 C 253.421875 453.011719 256.09375 441.964844 239.777344 437.871094 C 218.449219 432.207031 137.402344 430.054688 124.257812 430.398438 C 103.136719 431.105469 88.558594 432.929688 57.863281 434.734375 C 58.082031 437.863281 58.300781 440.996094 58.519531 444.101562 C 79.335938 442.046875 100.085938 439.828125 120.710938 438.738281 C 125.503906 438.523438 178.582031 442.371094 213.496094 445.355469 C 226.140625 446.433594 230.585938 448.578125 226.566406 448.683594 C 104.171875 451.609375 180.898438 458.9375 60.226562 466.703125 " fill-opacity="1" fill-rule="nonzero"/><path fill="#e68b4e" d="M 486.523438 450.480469 C 446.425781 465.761719 408.996094 485.027344 425.730469 504.058594 C 428.226562 504.148438 430.722656 504.234375 433.21875 504.335938 C 413.488281 490.324219 440.585938 472.769531 488.261719 455.089844 C 531.496094 439.964844 587.921875 440.882812 651.730469 439.714844 C 657.300781 436.136719 662.949219 432.617188 668.683594 429.160156 C 602.882812 424.796875 527.457031 434.933594 486.523438 450.480469 " fill-opacity="1" fill-rule="nonzero"/><path fill="#e68b4e" d="M 490.628906 495.253906 C 500.921875 495.699219 513.585938 495.578125 526.914062 495.457031 C 542.859375 495.3125 559.753906 495.167969 574.675781 495.996094 C 577.550781 493.664062 580.429688 491.332031 583.308594 489.042969 C 564.160156 486.273438 541.824219 485.695312 521.929688 485.144531 C 511.101562 484.84375 514.667969 481.125 527.667969 477.417969 C 556.105469 469.304688 584.539062 469.4375 600.175781 469.574219 C 603.667969 469.605469 606.519531 469.632812 608.597656 469.574219 C 613.792969 465.65625 613.832031 465.714844 619.097656 461.929688 C 601.28125 461.164062 583.304688 461.121094 568.851562 461.734375 C 458.234375 465.257812 456.375 493.488281 490.628906 495.253906 " fill-opacity="1" fill-rule="nonzero"/><path fill="#e68b4e" d="M 415.210938 369.839844 C 347.582031 405.101562 334.503906 395.644531 278.964844 386.1875 C 250.589844 381.359375 211.136719 376.527344 147.664062 377.660156 C 116.363281 377.371094 85.082031 380.355469 53.800781 381.210938 C 53.988281 383.277344 54.15625 385.410156 54.335938 387.503906 C 85.375 387.078125 116.414062 388.058594 147.402344 391.035156 C 207.148438 395.738281 228.574219 392.382812 260.84375 395.359375 C 341.316406 402.730469 366.707031 422.972656 478.554688 346.441406 L 478.878906 340.945312 C 467.792969 345.648438 421.222656 366.703125 415.210938 369.839844 " fill-opacity="1" fill-rule="nonzero"/><path fill="#e68b4e" d="M 599.117188 264.917969 C 575.78125 268.800781 552.089844 271.914062 532.980469 273.78125 C 452.980469 281.933594 319.078125 267.960938 356.273438 311.902344 C 362.410156 318.714844 371.285156 325.554688 381.160156 331.996094 C 390.015625 332.339844 398.835938 332.441406 407.554688 333.386719 C 405.25 331.710938 402.984375 329.972656 400.8125 328.046875 C 391.644531 319.914062 382.4375 308.058594 384.78125 302.734375 C 390.335938 290.128906 494.789062 280.492188 533.234375 276.351562 L 603.1875 268.902344 C 601.835938 267.5625 600.480469 266.242188 599.117188 264.917969 " fill-opacity="1" fill-rule="nonzero"/><path fill="#e68b4e" d="M 661.082031 384.277344 C 626.90625 380.714844 599.613281 374.441406 549.003906 374.226562 C 541.085938 374.371094 533.492188 374.300781 526.097656 374.230469 C 495.5625 373.9375 468.566406 373.644531 437.210938 388.507812 C 399.027344 408.25 311.480469 406.726562 311.6875 479.066406 L 320 477.578125 C 334.097656 417.914062 396.246094 421.308594 440.398438 394.945312 C 456.488281 386.179688 474.519531 381.492188 492.902344 381.285156 C 511.25 381.039062 529.976562 383.460938 548.746094 384.257812 C 617.601562 388.144531 660.195312 388.546875 660.746094 388.578125 C 676.25 389.390625 691.726562 390.660156 707.113281 392.832031 C 706.246094 391.226562 705.152344 389.453125 703.808594 387.484375 C 689.515625 386.96875 675.292969 385.761719 661.082031 384.277344 " fill-opacity="1" fill-rule="nonzero"/><path fill="#e68b4e" d="M 361.417969 470.164062 L 375.148438 467.707031 C 377.085938 466.265625 378.984375 464.785156 381.078125 463.507812 C 413.769531 441.339844 500.332031 409.546875 572.5 409.03125 C 604.507812 409.144531 647.050781 415.019531 681.347656 421.71875 C 684.976562 419.640625 688.703125 417.609375 692.414062 415.574219 C 595.832031 387.570312 417.222656 404.375 361.417969 470.164062 " fill-opacity="1" fill-rule="nonzero"/><path fill="#e68b4e" d="M 430.941406 241.816406 C 441.507812 241.945312 452.039062 241.539062 462.558594 241.082031 C 492.988281 239.675781 523.101562 234.378906 553.421875 232.191406 C 550.472656 231.421875 547.316406 230.753906 543.8125 230.300781 C 541.835938 230.042969 539.796875 229.785156 537.726562 229.523438 C 512.589844 230.175781 486.875 229.347656 462.058594 230.617188 C 429.910156 231.71875 384.550781 239.515625 347.371094 221.679688 L 355.886719 229.984375 C 388.359375 240.625 400.691406 241.585938 430.941406 241.816406 " fill-opacity="1" fill-rule="nonzero"/><path fill="#e68b4e" d="M 339.722656 379.730469 C 369.917969 373.890625 401.941406 358.410156 371.144531 362.125 C 371.144531 362.125 335.664062 365.550781 318.042969 369.871094 C 300.417969 374.1875 309.527344 385.566406 339.722656 379.730469 " fill-opacity="1" fill-rule="nonzero"/><path fill="#e68b4e" d="M 554.003906 300.617188 C 508.371094 301.074219 510.523438 315.171875 519.875 320.109375 C 531.601562 325.730469 573.128906 328.386719 608.496094 332.886719 C 622.605469 334.644531 636.675781 336.570312 650.617188 339.117188 C 657.140625 340.46875 663.773438 341.882812 670.203125 343.71875 C 668.578125 341.703125 666.953125 339.6875 665.308594 337.671875 C 660.722656 336.59375 656.136719 335.574219 651.527344 334.59375 C 637.527344 331.566406 623.453125 329.042969 609.332031 326.945312 C 546.351562 317.597656 559.070312 306.707031 574.34375 307.660156 C 583.363281 308.226562 597.839844 309.585938 604.050781 310.203125 C 622.207031 312.042969 633.996094 313.300781 650.699219 320.199219 C 647.121094 316.015625 643.484375 311.875 639.820312 307.738281 C 625.703125 305.484375 611.492188 303.800781 597.214844 302.535156 C 582.90625 301.386719 568.550781 300.539062 554.003906 300.617188 " fill-opacity="1" fill-rule="nonzero"/><path fill="#e68b4e" d="M 219.449219 274.476562 C 234.703125 275.6875 249.816406 279.058594 264.722656 283.609375 C 296.808594 292.996094 322.90625 309.300781 389.417969 264.222656 C 392.371094 262.222656 407.144531 258.429688 412.585938 258.621094 C 455.015625 260.136719 539.742188 257.964844 587.621094 254.035156 C 586.773438 253.253906 585.949219 252.425781 585.101562 251.652344 C 584.464844 251.070312 583.75 250.375 583.011719 249.648438 C 497.066406 260.65625 400.121094 248.570312 321.179688 240.648438 C 304.410156 238.886719 287.605469 237.527344 270.820312 235.949219 C 262.417969 235.242188 254.089844 234.226562 245.492188 234.042969 C 203.925781 232.695312 173.089844 237.195312 144.125 241.691406 C 109.910156 247 78.304688 252.3125 34.6875 248 C 34.832031 248.796875 34.929688 249.488281 35.085938 250.316406 C 35.261719 251.246094 35.40625 252.121094 35.578125 253.046875 C 63.730469 253.75 91.78125 253.816406 119.832031 249.898438 C 215.246094 235.066406 262.558594 245.4375 320.265625 250.875 C 331.210938 251.957031 342.160156 252.984375 353.113281 253.964844 C 363.921875 254.9375 359.6875 269.128906 349.910156 273.160156 C 313.386719 288.230469 301.878906 284.621094 266.644531 276.507812 C 251.425781 272.824219 235.980469 268.824219 220.023438 267.503906 C 197.640625 265.808594 101.671875 256.6875 40.472656 280.753906 C 40.894531 283.265625 41.304688 285.757812 41.707031 288.238281 C 71.816406 280.425781 197.074219 272.566406 219.449219 274.476562 " fill-opacity="1" fill-rule="nonzero"/><path fill="#e68b4e" d="M 425.753906 293.183594 C 412.648438 300.71875 410.75 311.570312 434.589844 316.957031 C 518.019531 334.996094 426.46875 316.90625 577.898438 354.5625 C 619.515625 364.5625 661.011719 374.878906 702.441406 385.566406 C 702.1875 385.210938 701.964844 384.886719 701.699219 384.519531 C 699.996094 382.210938 698.191406 379.847656 696.445312 377.519531 C 532.667969 344.074219 477.820312 318.976562 469.332031 316.601562 C 454.613281 312.425781 445.140625 307.875 451.105469 303.339844 C 453.59375 301.445312 467.351562 294.492188 490.597656 291.667969 C 523.015625 287.726562 572.417969 288.113281 622.433594 288.683594 C 620.824219 286.972656 619.246094 285.226562 617.625 283.53125 C 532.597656 284.695312 447.234375 282.460938 425.753906 293.183594 " fill-opacity="1" fill-rule="nonzero"/><path fill="#e68b4e" d="M 32.460938 231.929688 C 104.601562 217.367188 82.355469 235.15625 246.5625 222.035156 C 259.226562 220.996094 271.859375 219.597656 284.515625 218.3125 L 303.507812 216.015625 C 306.679688 215.585938 309.847656 215.0625 313.058594 214.519531 C 313.714844 214.394531 314.386719 214.226562 315.046875 214.097656 C 311.382812 212.351562 308.785156 211.171875 308.007812 210.953125 C 306.996094 210.664062 305.660156 210.277344 304.179688 209.859375 C 303.667969 209.9375 303.171875 210.046875 302.664062 210.125 C 296.460938 211.0625 290.1875 211.714844 283.910156 212.304688 C 271.34375 213.53125 258.703125 214.109375 246.082031 214.75 C 109.203125 221.601562 87.726562 203 32.25 222.898438 C 32.09375 225.484375 32.179688 228.515625 32.460938 231.929688 " fill-opacity="1" fill-rule="nonzero"/><path fill="#e68b4e" d="M 52.421875 367.261719 C 116.09375 345.683594 147.707031 361.964844 242.707031 358.984375 C 287.171875 357.984375 346.417969 347.152344 368.054688 335.703125 L 364.609375 330.191406 C 346.855469 341.355469 322.878906 345.445312 158.316406 350.230469 C 122.488281 351.1875 106.125 347.90625 51.914062 362.300781 C 52.007812 363.484375 52.144531 364.597656 52.246094 365.523438 C 52.308594 366.085938 52.359375 366.691406 52.421875 367.261719 " fill-opacity="1" fill-rule="nonzero"/><path fill="#e68b4e" d="M 270.039062 318.136719 C 280.546875 319.363281 291.054688 320.695312 301.402344 322.769531 C 311.625 324.90625 322.203125 327.507812 330.816406 332.535156 L 340.011719 328.761719 C 338.953125 328.347656 331.726562 325.972656 330.671875 325.597656 C 321.167969 322.191406 311.859375 320.164062 302.429688 317.96875 C 291.984375 315.644531 281.53125 313.398438 271.019531 311.515625 C 250.035156 307.488281 228.925781 304.015625 207.667969 301.917969 C 184.511719 299.578125 166.023438 298.617188 143.160156 300.804688 C 122.902344 302.8125 102.933594 306.246094 83.40625 312.179688 C 92.023438 313.21875 99.277344 314.097656 99.277344 314.097656 C 99.277344 314.097656 100.53125 314.703125 102.480469 315.65625 C 116.203125 313.492188 130.066406 311.980469 143.882812 311.359375 C 174.773438 309.992188 260.535156 317.179688 270.039062 318.136719 " fill-opacity="1" fill-rule="nonzero"/><path fill="#ffcaa1" d="M 147.742188 339.441406 C 147.742188 339.441406 239.246094 341.078125 263.21875 341.855469 C 287.195312 342.632812 393.949219 348.046875 420.238281 350.992188 C 446.53125 353.933594 699.945312 382.171875 699.945312 382.171875 C 699.945312 382.171875 689.015625 377.492188 678.125 375.796875 C 667.230469 374.101562 444.542969 339.128906 420.605469 337.757812 C 396.664062 336.386719 303.472656 329.449219 260.460938 333.300781 C 217.449219 337.152344 147.742188 339.441406 147.742188 339.441406 " fill-opacity="1" fill-rule="nonzero"/><path fill="#6e3211" d="M 695.777344 376.628906 C 477.660156 320.589844 290.8125 325.742188 219.578125 330.902344 C 192.722656 332.84375 182.300781 334.789062 192.835938 333.453125 C 192.835938 333.453125 141.09375 334.921875 121.894531 325.238281 C 144.609375 343.164062 146.632812 339.484375 161.027344 337.570312 C 156.609375 338.207031 152.09375 338.742188 147.742188 339.441406 C 344.070312 328.75 533.929688 355.507812 699.945312 382.171875 C 699.339844 381.351562 696.390625 377.449219 695.777344 376.628906 " fill-opacity="1" fill-rule="nonzero"/><path fill="#a9461d" d="M 540.351562 512.203125 C 535.339844 512.203125 530.808594 511.585938 527.523438 511.226562 C 527.078125 511.179688 526.636719 511.128906 526.1875 511.082031 C 526.636719 511.128906 527.078125 511.179688 527.523438 511.226562 C 530.808594 511.585938 535.339844 512.203125 540.351562 512.203125 C 542.910156 512.203125 545.589844 512.042969 548.300781 511.601562 C 545.589844 512.042969 542.910156 512.203125 540.351562 512.203125 M 526.164062 511.078125 C 525.960938 511.058594 525.769531 511.035156 525.570312 511.015625 C 525.769531 511.035156 525.960938 511.058594 526.164062 511.078125 " fill-opacity="1" fill-rule="nonzero"/><path fill="#6a2c0e" d="M 340.355469 497.988281 C 342.421875 494.945312 347.125 491.367188 350.441406 489.414062 C 347.125 491.367188 342.421875 494.945312 340.355469 497.988281 M 350.441406 489.414062 C 350.613281 489.3125 350.898438 489.148438 351.273438 488.933594 C 350.898438 489.148438 350.617188 489.3125 350.441406 489.414062 " fill-opacity="1" fill-rule="nonzero"/><path fill="#f59856" d="M 540.351562 512.203125 C 535.339844 512.203125 530.808594 511.585938 527.523438 511.226562 C 527.078125 511.179688 526.636719 511.128906 526.1875 511.082031 C 526.179688 511.082031 526.171875 511.082031 526.164062 511.078125 C 525.960938 511.058594 525.769531 511.035156 525.570312 511.015625 C 494.554688 507.6875 463.851562 505.558594 433.183594 504.308594 C 413.519531 490.300781 440.617188 472.757812 488.261719 455.089844 C 531.472656 439.972656 587.859375 440.882812 651.621094 439.714844 C 640.488281 446.867188 629.65625 454.261719 619.003906 461.921875 C 609.371094 461.511719 599.695312 461.3125 590.554688 461.3125 C 582.816406 461.3125 575.464844 461.453125 568.851562 461.734375 C 458.234375 465.257812 456.375 493.488281 490.628906 495.253906 C 496.164062 495.496094 502.386719 495.570312 509.03125 495.570312 C 514.738281 495.570312 520.753906 495.515625 526.914062 495.457031 C 533.074219 495.402344 539.378906 495.34375 545.652344 495.34375 C 555.59375 495.34375 565.46875 495.488281 574.609375 495.992188 C 571.019531 498.90625 567.429688 501.855469 563.835938 504.839844 C 559.089844 508.78125 553.644531 510.734375 548.300781 511.601562 C 545.589844 512.042969 542.910156 512.203125 540.351562 512.203125 M 425.695312 504.023438 C 402.296875 503.175781 378.90625 502.824219 355.394531 502.824219 C 353.03125 502.824219 350.65625 502.824219 348.292969 502.832031 C 348.257812 502.832031 348.222656 502.835938 348.191406 502.835938 C 344.929688 502.835938 339.664062 502.378906 339.660156 499.808594 C 339.660156 499.3125 339.855469 498.742188 340.296875 498.078125 C 340.316406 498.046875 340.335938 498.019531 340.355469 497.988281 C 342.421875 494.945312 347.125 491.367188 350.441406 489.414062 C 350.617188 489.3125 350.898438 489.148438 351.273438 488.933594 C 352.058594 488.484375 353.257812 487.804688 354.726562 486.976562 C 407.722656 478.601562 509.261719 441.5625 520.820312 413.925781 C 538.253906 410.949219 555.761719 409.148438 572.5 409.03125 C 604.488281 409.144531 647 415.011719 681.289062 421.707031 C 677.003906 424.160156 672.777344 426.644531 668.601562 429.15625 C 658.210938 428.46875 647.574219 428.144531 636.875 428.144531 C 579.859375 428.144531 520.972656 437.394531 486.523438 450.480469 C 446.453125 465.753906 409.046875 485 425.695312 504.023438 M 583.265625 489.035156 C 564.132812 486.269531 541.808594 485.695312 521.929688 485.144531 C 511.101562 484.84375 514.667969 481.125 527.667969 477.417969 C 552.464844 470.34375 577.257812 469.539062 593.5625 469.539062 C 595.960938 469.539062 598.171875 469.554688 600.175781 469.574219 C 602.179688 469.589844 603.972656 469.609375 605.53125 469.609375 C 606.664062 469.609375 607.667969 469.601562 608.539062 469.574219 C 600.042969 475.882812 591.644531 482.367188 583.265625 489.035156 M 692.296875 415.539062 C 662.566406 406.9375 625.066406 402.570312 585.789062 402.570312 C 564.589844 402.570312 542.875 403.839844 521.578125 406.402344 C 520.101562 400.710938 513.511719 395.664062 500.269531 391.683594 C 491.066406 388.917969 481.824219 386.121094 472.761719 383.328125 C 479.375 382.050781 486.117188 381.363281 492.902344 381.285156 C 493.78125 381.273438 494.667969 381.265625 495.550781 381.265625 C 513.046875 381.265625 530.878906 383.5 548.746094 384.257812 C 617.601562 388.144531 660.195312 388.546875 660.746094 388.578125 C 676.25 389.390625 691.726562 390.660156 707.113281 392.832031 C 706.246094 391.226562 705.152344 389.453125 703.808594 387.484375 C 689.515625 386.96875 675.292969 385.761719 661.082031 384.277344 C 626.90625 380.714844 599.613281 374.441406 549.003906 374.226562 C 545.628906 374.289062 542.308594 374.308594 539.039062 374.308594 C 534.644531 374.308594 530.339844 374.269531 526.097656 374.230469 C 521.863281 374.1875 517.695312 374.148438 513.574219 374.148438 C 495.753906 374.148438 478.816406 374.902344 461.054688 379.6875 C 453.074219 377.179688 445.324219 374.691406 437.945312 372.234375 C 446.175781 367.488281 454.957031 362.078125 464.390625 355.917969 C 527.320312 362.933594 636.984375 375.15625 680.929688 380.050781 C 688.101562 381.878906 695.277344 383.71875 702.441406 385.566406 C 702.1875 385.210938 701.964844 384.886719 701.699219 384.519531 C 707.550781 392.457031 709.859375 397.644531 709.859375 401.332031 C 709.863281 405.460938 706.980469 407.707031 702.953125 409.820312 C 699.359375 411.707031 695.808594 413.613281 692.296875 415.539062 M 701.699219 384.519531 C 701.121094 383.734375 700.527344 382.941406 699.929688 382.148438 C 699.285156 381.28125 696.386719 377.441406 695.777344 376.628906 C 659.636719 367.34375 624.328125 359.730469 590.289062 353.527344 C 524.402344 336.910156 490.789062 324.480469 476.625 319.203125 C 499.386719 310.847656 518.023438 299.871094 531.324219 288.90625 C 544.589844 288.476562 558.933594 288.328125 573.855469 288.328125 C 589.597656 288.328125 605.980469 288.496094 622.433594 288.683594 C 620.824219 286.972656 619.246094 285.226562 617.625 283.53125 C 589.972656 283.910156 562.285156 283.929688 536.765625 284.152344 C 540.078125 281.070312 542.957031 278.019531 545.359375 275.0625 L 603.1875 268.902344 C 601.835938 267.5625 600.480469 266.242188 599.117188 264.917969 C 581.417969 267.863281 563.503906 270.367188 547.550781 272.21875 C 551.894531 266.238281 554.195312 260.726562 554.214844 256.210938 C 566.441406 255.574219 577.804688 254.839844 587.621094 254.035156 C 586.773438 253.253906 585.949219 252.425781 585.101562 251.652344 C 628.492188 291.28125 668.847656 339.972656 701.699219 384.519531 M 670.203125 343.71875 C 668.578125 341.703125 666.953125 339.6875 665.308594 337.671875 C 660.722656 336.59375 656.136719 335.574219 651.527344 334.59375 C 637.527344 331.566406 623.453125 329.042969 609.332031 326.945312 C 548.957031 317.984375 558.148438 307.601562 572.472656 307.601562 C 573.085938 307.601562 573.710938 307.621094 574.34375 307.660156 C 583.363281 308.226562 597.839844 309.585938 604.050781 310.203125 C 622.207031 312.042969 633.996094 313.300781 650.699219 320.199219 C 647.121094 316.015625 643.484375 311.875 639.820312 307.738281 C 625.703125 305.484375 611.492188 303.800781 597.214844 302.535156 C 583.503906 301.4375 569.738281 300.609375 555.816406 300.609375 C 555.210938 300.609375 554.609375 300.613281 554.003906 300.617188 C 508.371094 301.074219 510.523438 315.171875 519.875 320.109375 C 531.601562 325.730469 573.128906 328.386719 608.496094 332.886719 C 622.605469 334.644531 636.675781 336.570312 650.617188 339.117188 C 657.140625 340.46875 663.773438 341.882812 670.203125 343.71875 M 421.78125 366.683594 C 402.285156 359.75 387.054688 353.292969 380.03125 347.914062 C 397.65625 349.035156 412.464844 350.121094 420.238281 350.992188 C 424.519531 351.46875 434.816406 352.621094 449.058594 354.207031 C 438.824219 358.832031 428.441406 363.574219 421.78125 366.683594 M 541.828125 345.484375 C 499.210938 339.089844 459 334.839844 422.0625 332.125 C 437 330.386719 451.011719 327.359375 463.921875 323.453125 C 490.667969 329.691406 460.5 324.695312 541.828125 345.484375 M 553.636719 252.523438 C 552.515625 249.257812 549.726562 246.808594 545.128906 245.484375 C 544.152344 245.203125 526.347656 242.019531 501.703125 237.664062 C 518.941406 235.691406 536.148438 233.4375 553.421875 232.191406 C 550.472656 231.421875 547.316406 230.753906 543.8125 230.300781 C 566.335938 233.222656 576.769531 243.574219 583 249.652344 C 573.347656 250.886719 563.539062 251.832031 553.636719 252.523438 M 585.078125 251.628906 C 585.074219 251.628906 585.074219 251.625 585.070312 251.625 C 585.074219 251.625 585.074219 251.628906 585.078125 251.628906 M 461.765625 230.628906 C 406.621094 220.941406 344.449219 210.089844 344.449219 210.089844 C 353.640625 210.71875 477.296875 221.667969 543.8125 230.300781 C 541.835938 230.042969 539.796875 229.785156 537.726562 229.523438 C 512.589844 230.175781 486.875 229.347656 462.058594 230.617188 C 461.960938 230.621094 461.863281 230.625 461.765625 230.628906 " fill-opacity="1" fill-rule="nonzero"/><path fill="#dd7a40" d="M 433.183594 504.308594 C 430.683594 504.207031 428.191406 504.109375 425.695312 504.023438 C 409.046875 485 446.453125 465.753906 486.523438 450.480469 C 520.972656 437.394531 579.859375 428.144531 636.875 428.144531 C 647.574219 428.144531 658.210938 428.46875 668.601562 429.15625 C 662.855469 432.617188 657.203125 436.132812 651.621094 439.714844 C 587.859375 440.882812 531.472656 439.972656 488.261719 455.089844 C 440.617188 472.757812 413.519531 490.300781 433.183594 504.308594 " fill-opacity="1" fill-rule="nonzero"/><path fill="#dd7a40" d="M 574.609375 495.992188 C 565.46875 495.488281 555.59375 495.34375 545.652344 495.34375 C 539.378906 495.34375 533.074219 495.402344 526.914062 495.457031 C 520.753906 495.515625 514.738281 495.570312 509.03125 495.570312 C 502.386719 495.570312 496.164062 495.496094 490.628906 495.253906 C 456.375 493.488281 458.234375 465.257812 568.851562 461.734375 C 575.464844 461.453125 582.816406 461.3125 590.554688 461.3125 C 599.695312 461.3125 609.371094 461.511719 619.003906 461.921875 C 615.5 464.445312 612.007812 466.996094 608.539062 469.574219 C 607.667969 469.601562 606.664062 469.609375 605.53125 469.609375 C 603.972656 469.609375 602.179688 469.589844 600.175781 469.574219 C 598.171875 469.554688 595.960938 469.539062 593.5625 469.539062 C 577.257812 469.539062 552.464844 470.34375 527.667969 477.417969 C 514.667969 481.125 511.101562 484.84375 521.929688 485.144531 C 541.808594 485.695312 564.132812 486.269531 583.265625 489.035156 C 580.378906 491.332031 577.492188 493.652344 574.609375 495.992188 " fill-opacity="1" fill-rule="nonzero"/><path fill="#dd7a40" d="M 437.945312 372.234375 C 432.3125 370.359375 426.898438 368.507812 421.78125 366.683594 C 428.441406 363.574219 438.824219 358.832031 449.058594 354.207031 C 453.765625 354.734375 458.898438 355.304688 464.390625 355.917969 C 454.957031 362.078125 446.175781 367.488281 437.945312 372.234375 " fill-opacity="1" fill-rule="nonzero"/><path fill="#dd7a40" d="M 545.359375 275.0625 C 546.140625 274.105469 546.871094 273.15625 547.550781 272.21875 C 563.503906 270.367188 581.417969 267.863281 599.117188 264.917969 C 600.480469 266.242188 601.835938 267.5625 603.1875 268.902344 L 545.359375 275.0625 " fill-opacity="1" fill-rule="nonzero"/><path fill="#dd7a40" d="M 707.113281 392.832031 C 691.726562 390.660156 676.25 389.390625 660.746094 388.578125 C 660.195312 388.546875 617.601562 388.144531 548.746094 384.257812 C 530.878906 383.5 513.046875 381.265625 495.550781 381.265625 C 494.667969 381.265625 493.78125 381.273438 492.902344 381.285156 C 486.117188 381.363281 479.375 382.050781 472.761719 383.328125 C 468.816406 382.113281 464.914062 380.898438 461.054688 379.6875 C 478.816406 374.902344 495.753906 374.148438 513.574219 374.148438 C 517.695312 374.148438 521.863281 374.1875 526.097656 374.230469 C 530.339844 374.269531 534.644531 374.308594 539.039062 374.308594 C 542.308594 374.308594 545.628906 374.289062 549.003906 374.226562 C 599.613281 374.441406 626.90625 380.714844 661.082031 384.277344 C 675.292969 385.761719 689.515625 386.96875 703.808594 387.484375 C 705.152344 389.453125 706.246094 391.226562 707.113281 392.832031 " fill-opacity="1" fill-rule="nonzero"/><path fill="#dd7a40" d="M 681.289062 421.707031 C 647 415.011719 604.488281 409.144531 572.5 409.03125 C 555.761719 409.148438 538.253906 410.949219 520.820312 413.925781 C 521.910156 411.324219 522.199219 408.804688 521.578125 406.402344 C 542.875 403.839844 564.589844 402.570312 585.789062 402.570312 C 625.066406 402.570312 662.566406 406.9375 692.296875 415.539062 C 688.582031 417.574219 684.914062 419.628906 681.289062 421.707031 " fill-opacity="1" fill-rule="nonzero"/><path fill="#dd7a40" d="M 501.703125 237.664062 C 489.640625 235.53125 475.929688 233.117188 461.765625 230.628906 C 461.863281 230.625 461.960938 230.621094 462.058594 230.617188 C 486.875 229.347656 512.589844 230.175781 537.726562 229.523438 C 539.796875 229.785156 541.835938 230.042969 543.8125 230.300781 C 547.316406 230.753906 550.472656 231.421875 553.421875 232.191406 C 536.148438 233.4375 518.941406 235.691406 501.703125 237.664062 " fill-opacity="1" fill-rule="nonzero"/><path fill="#dd7a40" d="M 670.203125 343.71875 C 663.773438 341.882812 657.140625 340.46875 650.617188 339.117188 C 636.675781 336.570312 622.605469 334.644531 608.496094 332.886719 C 573.128906 328.386719 531.601562 325.730469 519.875 320.109375 C 510.523438 315.171875 508.371094 301.074219 554.003906 300.617188 C 554.609375 300.613281 555.210938 300.609375 555.816406 300.609375 C 569.738281 300.609375 583.503906 301.4375 597.214844 302.535156 C 611.492188 303.800781 625.703125 305.484375 639.820312 307.738281 C 643.484375 311.875 647.121094 316.015625 650.699219 320.199219 C 633.996094 313.300781 622.207031 312.042969 604.050781 310.203125 C 597.839844 309.585938 583.363281 308.226562 574.34375 307.660156 C 573.710938 307.621094 573.085938 307.601562 572.472656 307.601562 C 558.148438 307.601562 548.957031 317.984375 609.332031 326.945312 C 623.453125 329.042969 637.527344 331.566406 651.527344 334.59375 C 656.136719 335.574219 660.722656 336.59375 665.308594 337.671875 C 666.953125 339.6875 668.578125 341.703125 670.203125 343.71875 " fill-opacity="1" fill-rule="nonzero"/><path fill="#dd7a40" d="M 554.214844 256.210938 C 554.222656 254.894531 554.03125 253.660156 553.636719 252.523438 C 563.539062 251.832031 573.347656 250.886719 583.011719 249.648438 C 583.746094 250.375 584.429688 251.039062 585.070312 251.625 C 585.074219 251.625 585.074219 251.628906 585.078125 251.628906 C 585.085938 251.636719 585.09375 251.644531 585.101562 251.652344 C 585.949219 252.425781 586.773438 253.253906 587.621094 254.035156 C 577.804688 254.839844 566.441406 255.574219 554.214844 256.210938 " fill-opacity="1" fill-rule="nonzero"/><path fill="#dd7a40" d="M 702.441406 385.566406 C 695.277344 383.71875 688.101562 381.878906 680.929688 380.050781 C 692.855469 381.382812 699.945312 382.171875 699.945312 382.171875 C 699.941406 382.164062 699.9375 382.15625 699.929688 382.148438 C 700.527344 382.941406 701.121094 383.734375 701.699219 384.519531 C 701.964844 384.886719 702.1875 385.210938 702.441406 385.566406 M 590.289062 353.527344 C 573.824219 350.527344 557.667969 347.859375 541.828125 345.484375 C 460.5 324.695312 490.667969 329.691406 463.921875 323.453125 C 468.28125 322.132812 472.527344 320.710938 476.625 319.203125 C 490.789062 324.480469 524.402344 336.910156 590.289062 353.527344 M 531.324219 288.90625 C 533.253906 287.320312 535.070312 285.730469 536.765625 284.152344 C 562.285156 283.929688 589.972656 283.910156 617.625 283.53125 C 619.246094 285.226562 620.824219 286.972656 622.433594 288.683594 C 605.980469 288.496094 589.597656 288.328125 573.855469 288.328125 C 558.933594 288.328125 544.589844 288.476562 531.324219 288.90625 " fill-opacity="1" fill-rule="nonzero"/><path fill="#f5b183" d="M 699.945312 382.171875 C 699.945312 382.171875 692.855469 381.382812 680.929688 380.050781 C 636.984375 375.15625 527.320312 362.933594 464.390625 355.917969 C 458.898438 355.304688 453.765625 354.734375 449.058594 354.207031 C 434.816406 352.621094 424.519531 351.46875 420.238281 350.992188 C 412.464844 350.121094 397.65625 349.035156 380.03125 347.914062 C 377.191406 345.738281 375.691406 343.738281 375.792969 341.953125 C 490.023438 349.824219 599.355469 366.015625 699.945312 382.171875 " fill-opacity="1" fill-rule="nonzero"/><path fill="#6a2c0e" d="M 699.945312 382.171875 C 599.355469 366.015625 490.023438 349.824219 375.792969 341.953125 C 376.042969 337.6875 385.445312 334.652344 407.554688 333.386719 C 412.480469 333.105469 417.320312 332.679688 422.0625 332.125 C 459 334.839844 499.210938 339.089844 541.828125 345.484375 C 557.667969 347.859375 573.824219 350.527344 590.289062 353.527344 C 624.328125 359.730469 659.636719 367.34375 695.777344 376.628906 C 696.386719 377.441406 699.285156 381.28125 699.929688 382.148438 C 699.9375 382.15625 699.941406 382.164062 699.945312 382.171875 " fill-opacity="1" fill-rule="nonzero"/><path fill="#ffcaa1" d="M 77.433594 205.546875 C 38.808594 205.96875 25.589844 199.949219 35.085938 250.316406 C 38.078125 266.175781 40.671875 281.28125 42.960938 295.84375 C 43.089844 296.648438 43.425781 297.648438 43.894531 298.710938 C 43.597656 291.734375 41.898438 255.566406 38.152344 235.925781 C 33.992188 214.136719 41.582031 214.277344 49.035156 211.394531 C 56.484375 208.511719 77.21875 208.210938 105.414062 208.769531 C 133.609375 209.324219 291.703125 206.925781 291.703125 206.925781 C 220.472656 203.328125 152.417969 204.722656 77.433594 205.546875 " fill-opacity="1" fill-rule="nonzero"/><path fill="#ffcaa1" d="M 63.828125 352.429688 C 69.871094 349.398438 99.621094 336.191406 104.535156 335.664062 C 108.773438 335.210938 134.984375 338.261719 142.164062 339.113281 C 130.363281 337.597656 103.933594 332.589844 103.933594 332.589844 C 103.933594 332.589844 97.246094 333.285156 92.621094 335.132812 C 81.710938 339.492188 62.644531 347.1875 57.578125 349.734375 C 50.355469 353.363281 51.777344 361.226562 52.246094 365.523438 C 56.449219 403.964844 58.375 451.425781 62.210938 489.003906 C 62.351562 490.371094 62.507812 491.632812 62.679688 492.835938 C 62.675781 492.816406 58.957031 387.449219 58.023438 374.542969 C 57.089844 361.632812 57.785156 355.460938 63.828125 352.429688 " fill-opacity="1" fill-rule="nonzero"/><path fill="#ffcaa1" d="M 346.988281 469.324219 C 335.816406 470.101562 312.269531 473.613281 305.90625 475.6875 C 299.546875 477.757812 270.765625 496.546875 265.519531 498.082031 C 260.34375 499.59375 112.460938 509.183594 108.535156 509.4375 C 158.9375 507.878906 210.117188 505.824219 257.011719 504.445312 C 259.773438 504.367188 268.546875 502.296875 272.832031 499.792969 C 277.113281 497.285156 306.746094 479.949219 306.746094 479.949219 L 395.605469 464.042969 C 395.605469 464.042969 358.164062 468.546875 346.988281 469.324219 " fill-opacity="1" fill-rule="nonzero"/><path fill="#ffcaa1" d="M 613.847656 286.484375 C 636.621094 314.519531 688.738281 367.285156 688.816406 367.363281 C 658.539062 327.742188 622.980469 286.246094 585.101562 251.652344 C 579.125 246.195312 569.070312 233.574219 543.8125 230.300781 C 477.296875 221.667969 353.640625 210.71875 344.449219 210.089844 C 344.449219 210.089844 542.453125 232.808594 553.136719 237.105469 C 563.820312 241.40625 591.054688 258.425781 613.847656 286.484375 " fill-opacity="1" fill-rule="nonzero"/></svg>