<svg xmlns="http://www.w3.org/2000/svg" xmlns:xlink="http://www.w3.org/1999/xlink" width="1000" zoomAndPan="magnify" viewBox="0 0 750 749.999995" height="1000" preserveAspectRatio="xMidYMid meet" version="1.0"><defs><clipPath id="d5c2e2313e"><path d="M 2 164 L 747 164 L 747 586.59375 L 2 586.59375 Z M 2 164 " clip-rule="nonzero"/></clipPath><clipPath id="efc6e4d3c1"><path d="M 258 544 L 666 544 L 666 586.59375 L 258 586.59375 Z M 258 544 " clip-rule="nonzero"/></clipPath><clipPath id="c6b434a347"><path d="M 634.390625 346.535156 L 746.222656 346.535156 L 746.222656 568.773438 L 634.390625 568.773438 Z M 634.390625 346.535156 " clip-rule="nonzero"/></clipPath><clipPath id="52e351be2d"><path d="M 5 163.59375 L 744 163.59375 L 744 552 L 5 552 Z M 5 163.59375 " clip-rule="nonzero"/></clipPath><clipPath id="7617b10440"><path d="M 266 163.59375 L 660 163.59375 L 660 193 L 266 193 Z M 266 163.59375 " clip-rule="nonzero"/></clipPath><clipPath id="cb2e80b5f6"><path d="M 265 163.59375 L 661 163.59375 L 661 206 L 265 206 Z M 265 163.59375 " clip-rule="nonzero"/></clipPath><clipPath id="b1e87fc5a8"><path d="M 41 163.59375 L 201 163.59375 L 201 281 L 41 281 Z M 41 163.59375 " clip-rule="nonzero"/></clipPath></defs><g clip-path="url(#d5c2e2313e)"><path fill="#b05023" d="M 619.617188 577.503906 C 569.566406 583.074219 524.066406 584.046875 366.625 585.976562 C 326.222656 586.472656 302.796875 586.015625 262.191406 585.65625 C 257.5 585.617188 258.699219 551.476562 258.699219 551.476562 C 254.363281 551.332031 243.214844 559.492188 232.199219 567.65625 C 221.164062 575.832031 210.257812 584.007812 206.460938 583.835938 C 157.648438 581.585938 130.957031 578.445312 119.441406 577.503906 C 104.402344 576.273438 95.453125 569.21875 88.6875 556.339844 C 80.496094 540.742188 63.414062 508.019531 51.546875 485.546875 C 50.433594 483.4375 51.75 469.378906 51.75 464.574219 C 51.75 463.386719 48.820312 463.542969 45.800781 463.695312 C 42.921875 463.839844 39.960938 463.988281 39.363281 462.976562 C 27.175781 442.300781 15.746094 417.726562 13.273438 412.5 C 3.402344 391.628906 -0.00390625 367.085938 5.253906 354.242188 C 11.015625 340.160156 79.503906 243.953125 87.777344 228.699219 C 98.257812 209.367188 110.136719 205.753906 128.570312 205.753906 C 132.613281 205.753906 159.515625 198.71875 199.683594 198.71875 C 205.898438 198.71875 195.984375 163.726562 200.890625 164.164062 C 218.082031 165.691406 252.78125 185.984375 255.539062 185.984375 C 377.472656 185.984375 556.328125 205.753906 621.351562 205.753906 C 638.558594 205.753906 650.808594 210.058594 660.40625 228.363281 C 661.523438 230.496094 663.570312 230.292969 666.296875 230.085938 C 671.574219 229.691406 679.414062 229.296875 688.136719 245.738281 C 692.273438 253.539062 691.386719 308.28125 695.742188 316.527344 C 697.257812 319.402344 700.085938 319.339844 702.902344 319.273438 C 705.710938 319.210938 708.511719 319.148438 710 321.984375 C 720.90625 342.773438 735.570312 337.109375 742.117188 350.316406 C 750.019531 366.265625 745.347656 392.933594 737.890625 407.15625 C 732.132812 418.132812 682.085938 513.5625 659.511719 556.601562 C 652.824219 569.351562 637.785156 575.480469 619.617188 577.503906 " fill-opacity="1" fill-rule="nonzero"/></g><g clip-path="url(#efc6e4d3c1)"><path fill="#8c411b" d="M 654.621094 551.363281 C 639.308594 566.007812 564.074219 563.835938 533.527344 568.734375 C 502.984375 573.628906 358.699219 577.375 374.035156 572.597656 C 384.699219 569.273438 309.351562 570.097656 258.746094 569.9375 C 259.078125 577.992188 259.972656 585.636719 262.191406 585.65625 C 302.796875 586.015625 326.222656 586.472656 366.625 585.976562 C 524.066406 584.046875 569.566406 583.074219 619.617188 577.503906 C 637.785156 575.480469 652.824219 569.351562 659.511719 556.601562 C 661.441406 552.921875 663.585938 548.832031 665.871094 544.472656 C 660.59375 547.085938 656.570312 549.507812 654.621094 551.363281 " fill-opacity="1" fill-rule="nonzero"/></g><path fill="#8c411b" d="M 206.460938 583.835938 C 209.953125 583.996094 219.460938 577.089844 229.550781 569.617188 C 222.402344 569.4375 217.425781 569.15625 215.796875 568.734375 C 204.75 565.851562 138.992188 568.613281 158.410156 564.632812 C 170.105469 562.234375 141.453125 568.390625 116.828125 565.332031 C 100.578125 563.3125 86.078125 551.363281 86.078125 551.363281 C 87.015625 553.148438 87.90625 554.84375 88.6875 556.335938 C 95.453125 569.214844 104.402344 576.273438 119.441406 577.503906 C 130.957031 578.441406 157.648438 581.585938 206.460938 583.835938 " fill-opacity="1" fill-rule="nonzero"/><g clip-path="url(#c6b434a347)"><path fill="#6e3211" d="M 716.734375 360.390625 C 704.046875 379.507812 634.414062 508.167969 634.414062 508.167969 C 634.414062 508.167969 647.160156 536.191406 649.15625 551.363281 C 649.855469 556.671875 649.148438 562.886719 647.953125 568.734375 C 652.886719 565.609375 656.871094 561.640625 659.511719 556.601562 C 682.085938 513.5625 732.132812 418.132812 737.886719 407.15625 C 745.347656 392.933594 750.019531 366.265625 742.117188 350.316406 C 741.441406 348.953125 740.660156 347.832031 739.820312 346.816406 C 729.859375 349.746094 720.964844 354.03125 716.734375 360.390625 " fill-opacity="1" fill-rule="nonzero"/></g><path fill="#6e3211" d="M 258.699219 551.476562 L 258.699219 516.648438 L 242.304688 516.648438 L 207.417969 548.898438 C 207.417969 548.898438 207.3125 559.273438 208.359375 563.914062 C 209.40625 568.5625 206.460938 583.835938 206.460938 583.835938 C 210.257812 584.007812 221.164062 575.832031 232.199219 567.65625 C 243.214844 559.492188 254.363281 551.332031 258.699219 551.476562 " fill-opacity="1" fill-rule="nonzero"/><path fill="#6e3211" d="M 39.363281 428.144531 C 39.363281 428.144531 39.5 438.835938 39.363281 443.375 C 39.226562 447.917969 39.425781 464.574219 39.425781 464.574219 L 51.75 464.574219 L 51.75 448.628906 L 75.066406 435.363281 L 76.980469 425.207031 L 39.363281 428.144531 " fill-opacity="1" fill-rule="nonzero"/><g clip-path="url(#52e351be2d)"><path fill="#ffad69" d="M 619.617188 542.671875 C 569.566406 548.246094 524.066406 549.21875 366.625 551.144531 C 326.222656 551.640625 302.796875 551.183594 262.191406 550.824219 C 257.5 550.785156 258.699219 516.648438 258.699219 516.648438 C 254.363281 516.5 243.214844 524.664062 232.199219 532.828125 C 221.164062 541.003906 210.257812 549.179688 206.460938 549.003906 C 157.648438 546.753906 130.957031 543.613281 119.441406 542.671875 C 104.402344 541.445312 95.453125 534.386719 88.6875 521.507812 C 80.496094 505.910156 63.414062 473.1875 51.546875 450.71875 C 49.605469 447.042969 65.507812 435.007812 67.796875 431.5625 C 69.511719 428.976562 59.671875 428.980469 51.097656 428.984375 C 45.179688 428.988281 39.863281 428.992188 39.363281 428.144531 C 27.175781 407.46875 15.746094 382.894531 13.273438 377.671875 C 3.402344 356.800781 2.292969 356.800781 11.015625 340.160156 C 31.128906 301.804688 79.503906 209.125 87.777344 193.867188 C 98.257812 174.535156 110.136719 170.925781 128.570312 170.925781 C 132.613281 170.925781 159.515625 163.886719 199.683594 163.886719 C 205.898438 163.886719 267.101562 205.304688 281.066406 211.1875 C 289.335938 214.667969 265.183594 186.300781 264.386719 181.4375 C 262.789062 171.714844 263.078125 163.886719 265.835938 163.886719 C 387.773438 163.886719 556.328125 170.925781 621.351562 170.925781 C 638.558594 170.925781 650.808594 175.226562 660.40625 193.53125 C 663.6875 199.789062 674.898438 220.777344 688.136719 245.738281 C 692.273438 253.539062 664.679688 275.179688 669.03125 283.425781 C 670.546875 286.300781 680.074219 285.800781 689.585938 285.308594 C 699.058594 284.8125 708.511719 284.316406 710 287.152344 C 720.90625 307.941406 731.121094 327.644531 737.667969 340.851562 C 745.574219 356.800781 745.347656 358.101562 737.890625 372.328125 C 732.132812 383.300781 682.085938 478.730469 659.511719 521.773438 C 652.824219 534.519531 637.785156 540.648438 619.617188 542.671875 " fill-opacity="1" fill-rule="nonzero"/></g><path fill="#e68b4e" d="M 8.898438 368.410156 C 9.84375 370.472656 10.980469 372.847656 12.277344 375.578125 C 87.828125 374.882812 189.902344 393.292969 198.84375 380.898438 C 209.621094 367.375 152.066406 360.5625 86.390625 353.953125 C 60.148438 351.320312 33.894531 349.03125 7.613281 346.980469 C 6.324219 349.800781 5.535156 352.089844 5.253906 354.242188 C 45.136719 357.898438 104.925781 363.632812 146.464844 369.59375 C 163.566406 372.050781 160.03125 376.703125 140.855469 375.273438 C 102.476562 372.410156 51.046875 367.40625 8.898438 368.410156 " fill-opacity="1" fill-rule="nonzero"/><path fill="#e68b4e" d="M 119.761719 184.808594 C 144.917969 185.914062 170.238281 184.105469 194.851562 184.921875 C 210.265625 185.417969 225.691406 186.4375 241.136719 187.613281 C 233.925781 183.125 226.785156 178.6875 220.445312 174.855469 C 211.949219 174.757812 203.457031 174.632812 194.9375 174.6875 C 172.074219 174.800781 153.042969 177.332031 119.945312 176.789062 C 114.40625 176.703125 108.847656 176.539062 103.292969 176.332031 C 100.332031 178.097656 97.550781 180.417969 94.925781 183.4375 C 103.191406 184.015625 111.464844 184.496094 119.761719 184.808594 " fill-opacity="1" fill-rule="nonzero"/><path fill="#e68b4e" d="M 78.90625 413.578125 C 103.414062 411.246094 127.777344 408.046875 152.125 404.921875 C 296.589844 386.589844 260.605469 395.226562 284.5 393.8125 C 295.554688 392.871094 298.476562 385.714844 287.785156 377.496094 C 270.363281 365.496094 238.8125 353.691406 218.554688 348.261719 C 209.394531 346.183594 108.421875 324.46875 26.539062 310.511719 C 25.109375 313.242188 23.707031 315.925781 22.355469 318.511719 C 138.574219 345.574219 202.765625 351.542969 248.65625 368.613281 C 260.425781 372.988281 250.601562 385.15625 232.714844 386.949219 C 169.726562 393.269531 88.121094 409.242188 29.113281 409.660156 C 30.292969 411.898438 31.5 414.164062 32.742188 416.441406 C 48.21875 416.121094 63.585938 414.929688 78.90625 413.578125 " fill-opacity="1" fill-rule="nonzero"/><path fill="#e68b4e" d="M 46.632812 272.109375 C 103.613281 269.667969 196.84375 263.492188 194.792969 249.777344 C 194.179688 245.0625 188.957031 243.777344 184.28125 242.835938 C 163.03125 239.070312 104.886719 239.363281 63.585938 239.738281 C 62.394531 242.011719 61.191406 244.3125 59.960938 246.660156 C 89.976562 246.417969 130.566406 246.425781 158.410156 248.257812 C 166.722656 248.804688 155.597656 256.394531 131.625 258.570312 C 112.90625 260.269531 82.300781 264.957031 51.527344 262.761719 C 49.902344 265.863281 48.269531 268.980469 46.632812 272.109375 " fill-opacity="1" fill-rule="nonzero"/><path fill="#e68b4e" d="M 89.214844 522.410156 C 90.742188 525.210938 92.367188 527.753906 94.164062 529.980469 C 131.410156 519.726562 157.546875 533.195312 190.765625 548.210938 C 195.734375 548.480469 200.9375 548.75 206.460938 549.003906 C 207.589844 549.054688 209.390625 548.308594 211.585938 547.113281 C 176.292969 530.828125 141.6875 504.496094 89.214844 522.410156 " fill-opacity="1" fill-rule="nonzero"/><path fill="#e68b4e" d="M 98.507812 493.917969 C 90.148438 493.628906 81.859375 493.253906 73.613281 492.734375 C 75.578125 496.488281 77.480469 500.125 79.292969 503.578125 C 85.511719 504.207031 91.714844 504.714844 97.859375 505.175781 C 174.59375 511.367188 179.578125 524.949219 236.957031 529.320312 C 243.015625 524.882812 248.757812 520.871094 253.089844 518.601562 C 175.101562 512.40625 174.078125 496.027344 98.507812 493.917969 " fill-opacity="1" fill-rule="nonzero"/><path fill="#e68b4e" d="M 681.378906 480.074219 C 632.683594 478.996094 531.992188 479.003906 542.488281 495.59375 C 548.707031 505.261719 595.339844 505.460938 643.789062 514.777344 C 649.589844 515.992188 655.398438 517.179688 661 518.933594 C 661.808594 517.390625 662.640625 515.800781 663.507812 514.148438 C 657.039062 512.609375 650.902344 511.171875 644.703125 510.054688 C 627.589844 506.757812 609.214844 504.039062 593.019531 501.527344 C 574.964844 498.726562 574.101562 490.386719 595.070312 489.667969 C 616.039062 488.953125 643.476562 488.605469 677.140625 488.15625 C 678.527344 485.503906 679.949219 482.804688 681.378906 480.074219 " fill-opacity="1" fill-rule="nonzero"/><path fill="#e68b4e" d="M 534.722656 475.746094 C 587.503906 469.820312 644.265625 463.234375 695.863281 452.457031 C 697.769531 448.824219 699.667969 445.203125 701.546875 441.621094 C 632.792969 444.707031 539.953125 459.808594 485.9375 471.816406 C 478.976562 473.351562 470.558594 474.484375 468.933594 481.695312 C 466.867188 492.644531 485.527344 502.792969 495.441406 507.855469 C 468.390625 503.035156 441.71875 498.757812 412.941406 497.691406 C 388.445312 496.8125 331.765625 495.457031 308.019531 495.5625 C 276.976562 495.152344 394.773438 466.679688 408.984375 464.597656 C 504.398438 451.628906 469.980469 456.734375 574.871094 432.160156 C 573.046875 430.992188 571.871094 429.167969 571.34375 427.125 C 497.753906 452.320312 438.996094 450.390625 407.582031 452.367188 C 399.996094 452.921875 294.035156 463.675781 258.5625 492.734375 C 193.683594 485.195312 152.921875 472.203125 88.652344 476.515625 C 81.140625 476.96875 73.675781 477.695312 66.191406 478.570312 C 67.121094 480.339844 68.050781 482.113281 68.972656 483.878906 C 159.464844 466.519531 205.828125 506.277344 340.28125 509.164062 C 352.449219 509.570312 364.757812 509.097656 376.699219 508.699219 C 440.21875 506.851562 522.796875 521.792969 554.28125 530.449219 C 565.757812 533.574219 577.074219 537.25 587.902344 541.925781 C 590.171875 542.929688 592.414062 543.988281 594.632812 545.082031 C 599.304688 544.703125 603.863281 544.292969 608.375 543.847656 C 608.140625 543.691406 607.929688 543.488281 607.691406 543.335938 C 602.453125 539.84375 596.945312 536.980469 591.371094 534.296875 C 580.183594 529.046875 568.617188 524.832031 556.886719 521.300781 C 525.144531 512.015625 527.890625 516.179688 510.179688 507.882812 C 479.691406 494.0625 525.8125 476.746094 534.722656 475.746094 " fill-opacity="1" fill-rule="nonzero"/><path fill="#e68b4e" d="M 543.789062 547.917969 C 550.164062 547.683594 556.140625 547.433594 561.800781 547.160156 L 562.328125 543.71875 C 379.832031 517.269531 361.710938 518.980469 329.285156 520.394531 C 318.25 520.824219 307.1875 520.953125 296.132812 520.679688 C 281.917969 520.359375 269.585938 519.777344 258.636719 519.011719 C 258.582031 521.535156 258.519531 525.777344 258.601562 530.429688 C 269.425781 530.746094 281.761719 530.808594 296.128906 530.550781 C 340 529.75 358.363281 519.785156 543.789062 547.917969 " fill-opacity="1" fill-rule="nonzero"/><path fill="#e68b4e" d="M 264.386719 181.4375 C 264.609375 182.800781 266.683594 186.027344 269.347656 189.855469 C 294.335938 191.902344 319.417969 193.886719 344.664062 194.429688 C 369.84375 195.074219 395.25 194.601562 420.546875 191.019531 C 433.191406 189.351562 445.8125 186.328125 457.824219 183.285156 L 494.289062 174.097656 C 501.785156 172.277344 509.296875 170.5625 516.800781 168.816406 C 507.925781 168.578125 498.816406 168.328125 489.46875 168.070312 L 455.902344 173.1875 C 443.414062 175.144531 431.425781 176.9375 419.128906 177.445312 C 394.628906 178.964844 369.882812 178.734375 345.058594 178.222656 C 318.039062 177.574219 290.902344 176.519531 263.664062 175.714844 C 263.824219 177.515625 264.054688 179.417969 264.386719 181.4375 " fill-opacity="1" fill-rule="nonzero"/><path fill="#e68b4e" d="M 292.175781 276.433594 L 287.246094 281.351562 C 296.761719 291.375 307.761719 299.425781 320.304688 305.472656 C 346.070312 318.109375 370.5625 312.09375 400.636719 301.765625 C 413.277344 297.414062 425.59375 292.484375 437.648438 286.617188 L 434.863281 280.234375 C 422.632812 284.675781 410.183594 288.914062 397.714844 292.644531 C 357.292969 304.28125 333.632812 311.097656 292.175781 276.433594 " fill-opacity="1" fill-rule="nonzero"/><path fill="#e68b4e" d="M 119.214844 458.238281 C 147.972656 460.136719 177.179688 462.980469 206.523438 464.355469 C 277.898438 466.542969 260.71875 451.945312 379.847656 434.035156 L 378.460938 427.207031 C 364.308594 430.824219 350.058594 433.976562 335.734375 436.753906 C 306.179688 442.589844 246.976562 453.460938 207.039062 452.039062 C 178.058594 450.941406 149.148438 447.9375 119.59375 447.1875 C 96.835938 446.765625 74.214844 448.082031 51.75 451.097656 C 53.097656 453.648438 54.507812 456.324219 55.964844 459.09375 C 77.035156 457.652344 98.230469 457.308594 119.214844 458.238281 " fill-opacity="1" fill-rule="nonzero"/><path fill="#e68b4e" d="M 681.496094 233.226562 C 629.4375 233.492188 561.011719 233.726562 556.753906 240.242188 C 555.761719 241.429688 556.152344 244.34375 556.59375 244.617188 C 559.101562 249.710938 582.886719 251.984375 628.691406 259.238281 C 650.5 262.65625 665.496094 264.972656 676.640625 266.792969 C 678.671875 264.183594 678.902344 264.070312 680.804688 261.535156 C 658.78125 260.023438 642.074219 255.304688 621.785156 252.402344 C 607.800781 250.402344 606.191406 241.859375 620.5 241.226562 C 639.363281 240.394531 661.394531 239.761719 684.875 239.585938 C 683.722656 237.421875 682.597656 235.3125 681.496094 233.226562 " fill-opacity="1" fill-rule="nonzero"/><path fill="#e68b4e" d="M 599.304688 402.378906 C 557.855469 396.828125 516.652344 390.304688 474.816406 384.960938 C 427.679688 379.234375 400.511719 384.414062 379.152344 388.769531 C 364.613281 391.730469 335.871094 381.058594 374.324219 366.839844 C 389.175781 361.347656 408.046875 355.828125 432.804688 344.6875 C 449.039062 337.3125 465.863281 332.5 483.332031 328.371094 C 518.347656 320.160156 553.734375 312.433594 588.792969 303.875 C 604.96875 299.964844 666.070312 285.140625 669.828125 284.226562 C 669.492188 283.988281 669.191406 283.734375 669.03125 283.425781 C 662.78125 283.242188 640.175781 282.347656 637.773438 282.867188 C 610.476562 277.710938 569.378906 270.890625 533.527344 264.363281 C 502.59375 258.726562 496.90625 238.910156 527.632812 233.847656 C 564.421875 227.789062 613.914062 221.679688 671.691406 214.792969 C 670.28125 212.140625 668.960938 209.652344 667.75 207.378906 C 561.449219 217.339844 426.953125 228.273438 453.765625 256.402344 C 465.097656 266.070312 550.300781 274.445312 616.421875 284.527344 C 511.027344 307.464844 553.898438 301.265625 480.8125 317.730469 C 463.121094 321.730469 445.1875 327.339844 428.558594 335.035156 C 387.828125 353.84375 373.332031 355.417969 352.96875 364.363281 C 311.15625 382.742188 318.910156 395.304688 328.03125 398.789062 C 293.765625 405.9375 259.675781 413.75 225.976562 423.273438 L 227.59375 430.050781 C 414.714844 394.367188 406.644531 384.734375 473.402344 395.136719 C 514.546875 401.976562 556.007812 409.878906 597.890625 414.078125 C 636.03125 418.363281 674.339844 420.785156 712.84375 420.085938 C 714.167969 417.550781 715.476562 415.066406 716.734375 412.652344 C 677.558594 411.191406 638.285156 407.234375 599.304688 402.378906 " fill-opacity="1" fill-rule="nonzero"/><path fill="#e68b4e" d="M 632.191406 338.640625 C 658.847656 329.25 693.953125 315.988281 721.449219 309.082031 C 720.773438 307.78125 720.082031 306.445312 719.390625 305.121094 C 710.464844 308.582031 674.488281 317.601562 648.367188 324.617188 C 587.980469 340.242188 589.285156 336.082031 576.898438 338.671875 C 573.003906 339.453125 571.007812 340.453125 569.632812 341.4375 C 567.136719 343.347656 566.046875 345.574219 565.898438 347.804688 C 564.339844 363.050781 617.296875 366.296875 626.773438 366.34375 C 643.035156 366.578125 697.695312 365.304688 743.382812 355.871094 C 743.078125 352.742188 743.460938 353.046875 740.945312 347.820312 C 675.945312 359.976562 679.960938 354.644531 634.253906 349.5625 C 623.328125 348.351562 620.285156 342.832031 632.191406 338.640625 " fill-opacity="1" fill-rule="nonzero"/><path fill="#e68b4e" d="M 544.285156 341.289062 C 568.742188 338.539062 650.734375 317.144531 714.953125 296.617188 C 713.675781 294.175781 712.382812 291.707031 711.082031 289.214844 C 624.78125 314.390625 581.75 327.972656 543.019531 331.003906 C 522.75 333.269531 501.472656 335.15625 489.921875 341.488281 C 481.195312 346.980469 479.90625 355.808594 493.523438 365.214844 C 528.808594 387.769531 652.589844 393.320312 727.671875 391.8125 C 730.332031 386.730469 732.597656 382.414062 734.355469 379.058594 C 652.394531 381.058594 607.296875 376.480469 560.199219 367.382812 C 519.8125 359.578125 533.339844 342.804688 544.285156 341.289062 " fill-opacity="1" fill-rule="nonzero"/><path fill="#e68b4e" d="M 532.507812 189.6875 C 505.980469 194.96875 479.386719 200.628906 452.5625 202.96875 C 440.183594 203.941406 441.722656 203.296875 371.269531 203.859375 C 333.054688 203.964844 303.285156 203.601562 278.601562 203.042969 C 282.332031 208.589844 284.492188 212.628906 281.066406 211.1875 C 277.945312 209.871094 272.398438 206.730469 265.703125 202.726562 C 192.960938 200.761719 166.382812 197.328125 83.875 201.179688 C 82.511719 203.746094 80.925781 206.746094 79.128906 210.152344 C 164.921875 210.0625 190.707031 210.644531 201.558594 211.226562 C 222.21875 212.332031 188.765625 213.441406 412.078125 209.894531 C 425.621094 209.664062 439.105469 210.03125 452.976562 209.410156 C 480.324219 207.734375 507.445312 204.960938 534.46875 201.363281 C 561.5 197.792969 588.214844 192.570312 614.820312 186.929688 C 626.296875 184.429688 637.742188 181.804688 649.15625 179.058594 C 643.414062 174.34375 636.824219 172.132812 629.152344 171.347656 C 596.851562 177.136719 564.636719 183.265625 532.507812 189.6875 " fill-opacity="1" fill-rule="nonzero"/><path fill="#e68b4e" d="M 298.046875 345.621094 L 314.445312 345.019531 C 331.769531 344.738281 368.554688 340.226562 410.878906 328.988281 C 452.820312 317.84375 493.507812 303.582031 533.527344 286.554688 L 530.460938 280.296875 C 492.3125 299.4375 450.855469 312.421875 409.09375 321.335938 C 367.089844 329.480469 324.453125 333.734375 282.234375 331.753906 C 210.09375 328.105469 114.761719 309.257812 38.023438 288.5625 C 36.941406 290.632812 35.867188 292.683594 34.800781 294.722656 C 200.0625 335.242188 239.117188 343.042969 281.621094 345.109375 C 287.09375 345.363281 292.574219 345.632812 298.046875 345.621094 " fill-opacity="1" fill-rule="nonzero"/><path fill="#e68b4e" d="M 536.984375 216.582031 C 578.773438 211.917969 620.09375 203.910156 661.191406 195.023438 C 660.925781 194.527344 660.605469 193.917969 660.40625 193.53125 C 659.644531 192.082031 658.835938 190.867188 658.046875 189.589844 C 618.054688 199.339844 577.234375 205.589844 536.085938 208.070312 C 385.667969 219.679688 371.542969 220.882812 350.8125 221.976562 C 328.671875 223.210938 293.570312 222.394531 256.015625 221.574219 C 210.582031 220.585938 161.550781 219.597656 127.503906 222.246094 C 115.027344 223.171875 102.566406 223.960938 89.933594 227.175781 C 83.292969 227.472656 76.59375 227.582031 69.890625 227.71875 C 68.699219 229.988281 67.46875 232.332031 66.214844 234.730469 C 74.804688 234.347656 83.410156 234.011719 92.015625 233.742188 C 237.539062 229.253906 210.640625 238.757812 480.179688 284.527344 L 481.964844 277.792969 C 417.894531 256.554688 296.125 248.410156 223.03125 229.210938 C 221.691406 228.859375 204.742188 224.746094 220.140625 225.304688 C 327.933594 229.214844 306.671875 248.585938 536.984375 216.582031 " fill-opacity="1" fill-rule="nonzero"/><path fill="#e68b4e" d="M 175.386719 280.628906 C 176.355469 280.496094 177.277344 280.300781 178.335938 280.300781 C 181.382812 280.300781 183.59375 281.582031 185.015625 283.433594 C 230.746094 260.15625 250.867188 246.089844 329.992188 273.425781 C 331.1875 270.730469 338.90625 272.617188 343.886719 273.253906 C 273.953125 245.832031 222.003906 238.265625 175.386719 280.628906 " fill-opacity="1" fill-rule="nonzero"/><path fill="#e68b4e" d="M 195.746094 302.144531 C 227.074219 314.171875 276.039062 317.964844 280.3125 307.710938 C 284.585938 297.457031 164.414062 290.113281 195.746094 302.144531 " fill-opacity="1" fill-rule="nonzero"/><path fill="#ffcaa1" d="M 40.707031 283.4375 C 40.707031 283.4375 178.332031 293.898438 237.230469 294.519531 C 551.148438 297.8125 669.03125 283.425781 669.03125 283.425781 C 669.03125 283.425781 364.648438 280.097656 362.445312 279.203125 C 360.242188 278.308594 40.707031 283.4375 40.707031 283.4375 " fill-opacity="1" fill-rule="nonzero"/><path fill="#6e3211" d="M 669.40625 283.800781 C 669.292969 283.675781 669.105469 283.574219 669.03125 283.425781 C 668.878906 283.140625 668.851562 282.800781 668.773438 282.480469 C 485.835938 270.742188 210.25 267.234375 41.996094 280.976562 C 41.5625 281.796875 41.136719 282.617188 40.707031 283.4375 C 174.71875 283.867188 457.484375 289.472656 669.40625 283.800781 " fill-opacity="1" fill-rule="nonzero"/><path fill="#ffcaa1" d="M 66.164062 433.417969 C 66.164062 433.417969 295.875 439.398438 379.847656 439.398438 C 463.816406 439.398438 705.027344 434.980469 705.027344 434.980469 L 390.234375 428.144531 L 66.164062 433.417969 " fill-opacity="1" fill-rule="nonzero"/><path fill="#6e3211" d="M 66.164062 433.417969 C 156.679688 431.960938 264.257812 432.996094 379.414062 434.03125 C 484.066406 434.96875 594.976562 435.910156 705.027344 434.980469 C 705.558594 433.96875 706.078125 432.972656 706.605469 431.972656 C 522.117188 419.792969 240.984375 413.574219 63.589844 429.347656 C 66.710938 429.679688 68.625 430.3125 67.796875 431.5625 C 67.484375 432.03125 66.902344 432.671875 66.164062 433.417969 " fill-opacity="1" fill-rule="nonzero"/><path fill="#a9461d" d="M 273.792969 550.933594 C 273.777344 550.933594 273.765625 550.933594 273.753906 550.933594 C 273.765625 550.933594 273.777344 550.933594 273.792969 550.933594 M 273.199219 550.929688 C 273.171875 550.929688 273.140625 550.929688 273.113281 550.929688 C 273.140625 550.929688 273.171875 550.929688 273.199219 550.929688 M 271.90625 550.917969 C 271.824219 550.914062 271.742188 550.914062 271.660156 550.914062 C 271.742188 550.914062 271.824219 550.914062 271.90625 550.917969 M 271.65625 550.914062 C 271.523438 550.914062 271.382812 550.910156 271.25 550.910156 C 271.382812 550.910156 271.523438 550.914062 271.65625 550.914062 M 271.054688 550.910156 C 271.050781 550.910156 271.050781 550.910156 271.046875 550.910156 C 271.050781 550.910156 271.050781 550.910156 271.054688 550.910156 M 270.425781 550.902344 C 270.296875 550.898438 270.167969 550.898438 270.039062 550.898438 C 270.167969 550.898438 270.296875 550.898438 270.425781 550.902344 M 269.546875 550.894531 C 269.445312 550.894531 269.347656 550.890625 269.246094 550.890625 C 269.347656 550.890625 269.445312 550.894531 269.546875 550.894531 M 268.996094 550.886719 C 268.886719 550.886719 268.769531 550.886719 268.660156 550.886719 C 268.769531 550.886719 268.886719 550.886719 268.996094 550.886719 M 267.402344 550.875 C 267.300781 550.875 267.203125 550.871094 267.101562 550.871094 C 267.203125 550.871094 267.300781 550.875 267.402344 550.875 M 266.558594 550.863281 C 266.546875 550.863281 266.535156 550.863281 266.527344 550.863281 C 266.535156 550.863281 266.546875 550.863281 266.558594 550.863281 M 266.523438 550.863281 C 266.460938 550.863281 266.398438 550.863281 266.339844 550.863281 C 266.398438 550.863281 266.460938 550.863281 266.523438 550.863281 M 265.601562 550.855469 C 265.59375 550.855469 265.585938 550.855469 265.574219 550.855469 C 265.585938 550.855469 265.59375 550.855469 265.601562 550.855469 M 265.570312 550.855469 C 264.949219 550.851562 264.320312 550.84375 263.6875 550.839844 C 264.320312 550.84375 264.949219 550.851562 265.570312 550.855469 M 263.199219 550.835938 C 263.046875 550.835938 262.902344 550.832031 262.75 550.832031 C 262.902344 550.832031 263.046875 550.835938 263.199219 550.835938 M 262.480469 550.828125 C 262.382812 550.828125 262.285156 550.828125 262.191406 550.824219 C 259.878906 550.808594 259 542.507812 258.699219 534.097656 C 259 542.507812 259.878906 550.808594 262.191406 550.824219 C 262.285156 550.828125 262.382812 550.828125 262.480469 550.828125 M 119.441406 542.671875 C 104.402344 541.445312 95.453125 534.386719 88.6875 521.507812 C 87.246094 518.757812 85.511719 515.453125 83.589844 511.789062 C 85.515625 515.460938 87.242188 518.75 88.6875 521.507812 C 95.453125 534.386719 104.402344 541.445312 119.441406 542.671875 " fill-opacity="1" fill-rule="nonzero"/><path fill="#6a2c0e" d="M 645.171875 535.578125 C 651.425781 532.253906 656.378906 527.738281 659.511719 521.773438 C 659.992188 520.851562 660.488281 519.902344 661 518.933594 C 660.488281 519.902344 659.992188 520.851562 659.511719 521.773438 C 656.378906 527.738281 651.425781 532.253906 645.171875 535.578125 " fill-opacity="1" fill-rule="nonzero"/><path fill="#f59856" d="M 332.453125 551.363281 C 313.054688 551.363281 295.792969 551.148438 273.792969 550.933594 C 273.777344 550.933594 273.765625 550.933594 273.753906 550.933594 C 273.570312 550.933594 273.382812 550.929688 273.199219 550.929688 C 273.171875 550.929688 273.140625 550.929688 273.113281 550.929688 C 272.710938 550.925781 272.308594 550.921875 271.90625 550.917969 C 271.824219 550.914062 271.742188 550.914062 271.660156 550.914062 C 271.65625 550.914062 271.660156 550.914062 271.65625 550.914062 C 271.523438 550.914062 271.382812 550.910156 271.25 550.910156 C 271.1875 550.910156 271.121094 550.910156 271.054688 550.910156 C 271.050781 550.910156 271.050781 550.910156 271.046875 550.910156 C 270.84375 550.90625 270.632812 550.902344 270.425781 550.902344 C 270.296875 550.898438 270.167969 550.898438 270.039062 550.898438 C 269.875 550.898438 269.710938 550.894531 269.546875 550.894531 C 269.445312 550.894531 269.347656 550.890625 269.246094 550.890625 C 269.164062 550.890625 269.078125 550.890625 268.996094 550.886719 C 268.886719 550.886719 268.769531 550.886719 268.660156 550.886719 C 268.242188 550.882812 267.824219 550.878906 267.402344 550.875 C 267.300781 550.875 267.203125 550.871094 267.101562 550.871094 C 266.917969 550.871094 266.742188 550.867188 266.558594 550.863281 C 266.546875 550.863281 266.535156 550.863281 266.527344 550.863281 C 266.523438 550.863281 266.523438 550.863281 266.523438 550.863281 C 266.460938 550.863281 266.398438 550.863281 266.339844 550.863281 C 266.089844 550.859375 265.851562 550.859375 265.601562 550.855469 C 265.59375 550.855469 265.585938 550.855469 265.574219 550.855469 L 265.570312 550.855469 C 264.949219 550.851562 264.320312 550.84375 263.6875 550.839844 C 263.523438 550.839844 263.359375 550.835938 263.199219 550.835938 C 263.046875 550.835938 262.902344 550.832031 262.75 550.832031 C 262.660156 550.828125 262.570312 550.828125 262.480469 550.828125 C 262.382812 550.828125 262.285156 550.828125 262.191406 550.824219 C 259.878906 550.808594 259 542.507812 258.699219 534.097656 C 258.59375 531.210938 258.5625 528.316406 258.5625 525.730469 C 258.5625 520.558594 258.699219 516.648438 258.699219 516.648438 C 258.660156 516.648438 258.621094 516.648438 258.582031 516.648438 C 257.261719 516.648438 255.351562 517.367188 253.03125 518.59375 C 234.679688 517.136719 220.597656 515.113281 208.796875 512.84375 C 239.765625 511.757812 268.710938 509.65625 295.574219 506.703125 C 309.363281 507.945312 324.195312 508.816406 340.28125 509.164062 C 343.578125 509.273438 346.886719 509.320312 350.195312 509.320312 C 359.09375 509.320312 367.992188 508.988281 376.699219 508.699219 C 380.332031 508.589844 384.039062 508.542969 387.785156 508.542969 C 449.507812 508.542969 524.597656 522.289062 554.28125 530.449219 C 565.757812 533.574219 577.074219 537.25 587.902344 541.925781 C 590.171875 542.929688 592.414062 543.988281 594.632812 545.082031 C 599.304688 544.703125 603.863281 544.292969 608.375 543.847656 C 608.140625 543.691406 607.929688 543.488281 607.691406 543.335938 C 602.453125 539.84375 596.945312 536.980469 591.371094 534.296875 C 580.183594 529.046875 568.617188 524.832031 556.886719 521.300781 C 525.144531 512.015625 527.890625 516.179688 510.179688 507.882812 C 479.691406 494.0625 525.8125 476.746094 534.722656 475.746094 C 587.503906 469.820312 644.265625 463.234375 695.863281 452.457031 C 691 461.738281 686.089844 471.089844 681.378906 480.074219 C 671.507812 479.855469 659.488281 479.679688 646.699219 479.679688 C 596.417969 479.679688 534.117188 482.367188 542.488281 495.59375 C 548.707031 505.261719 595.339844 505.460938 643.789062 514.777344 C 649.589844 515.992188 655.398438 517.179688 661 518.933594 C 660.488281 519.902344 659.992188 520.851562 659.511719 521.773438 C 656.378906 527.738281 651.425781 532.253906 645.171875 535.578125 C 638.058594 539.359375 629.285156 541.597656 619.617188 542.671875 C 614.949219 543.191406 610.320312 543.671875 605.636719 544.117188 C 560.105469 548.433594 509.386719 549.398438 366.625 551.144531 C 353.90625 551.300781 342.875 551.363281 332.453125 551.363281 M 353.441406 528.191406 C 386.21875 528.191406 437.609375 531.808594 543.789062 547.917969 C 550.164062 547.683594 556.140625 547.433594 561.800781 547.160156 L 562.328125 543.71875 C 422.472656 523.449219 379.144531 519.71875 351.945312 519.71875 C 343.648438 519.71875 336.863281 520.0625 329.285156 520.394531 C 322.171875 520.671875 315.050781 520.824219 307.929688 520.824219 C 303.996094 520.824219 300.0625 520.777344 296.132812 520.679688 C 281.917969 520.359375 269.585938 519.777344 258.636719 519.011719 C 258.582031 521.535156 258.519531 525.777344 258.601562 530.429688 C 264.867188 530.613281 271.648438 530.710938 279.03125 530.710938 C 284.394531 530.710938 290.082031 530.660156 296.128906 530.550781 C 314.878906 530.210938 328.976562 528.191406 353.441406 528.191406 M 206.585938 549.007812 C 206.542969 549.007812 206.503906 549.003906 206.460938 549.003906 C 206.5 549.003906 206.535156 549.007812 206.574219 549.007812 C 207.707031 549.007812 209.464844 548.269531 211.585938 547.113281 C 184.652344 534.683594 158.117188 516.40625 123.738281 516.40625 C 113.066406 516.40625 101.644531 518.167969 89.214844 522.410156 C 90.742188 525.210938 92.367188 527.753906 94.164062 529.980469 C 103.246094 527.480469 111.671875 526.390625 119.699219 526.390625 C 144.582031 526.390625 165.648438 536.855469 190.765625 548.210938 C 195.734375 548.480469 200.9375 548.75 206.460938 549.003906 C 205.558594 548.960938 204.660156 548.921875 203.769531 548.878906 C 156.660156 546.636719 130.742188 543.597656 119.441406 542.671875 C 104.402344 541.445312 95.453125 534.386719 88.6875 521.507812 C 87.242188 518.75 85.515625 515.460938 83.589844 511.789062 C 109.167969 513.03125 133.78125 513.640625 157.390625 513.683594 C 184.5 519.746094 199.660156 526.480469 236.957031 529.320312 C 235.375 530.472656 233.785156 531.648438 232.195312 532.828125 C 221.277344 540.914062 210.488281 549.007812 206.585938 549.007812 M 662.414062 516.230469 C 662.773438 515.546875 663.136719 514.851562 663.507812 514.148438 C 657.039062 512.609375 650.902344 511.171875 644.703125 510.054688 C 627.589844 506.757812 609.214844 504.039062 593.019531 501.527344 C 574.964844 498.726562 574.101562 490.386719 595.070312 489.667969 C 616.039062 488.953125 643.476562 488.605469 677.140625 488.15625 C 677.464844 487.542969 677.785156 486.929688 678.109375 486.3125 C 673.84375 494.441406 669.792969 502.171875 666.128906 509.152344 C 664.84375 511.609375 663.601562 513.972656 662.414062 516.230469 M 495.441406 507.855469 C 468.390625 503.035156 441.71875 498.757812 412.941406 497.691406 C 401.734375 497.289062 383.792969 496.785156 365.351562 496.371094 C 426.976562 484.601562 472.8125 467.933594 501.222656 449.855469 C 512.53125 447.191406 527.179688 443.496094 552.191406 437.523438 C 631.917969 436.320312 705.027344 434.980469 705.027344 434.980469 C 705.558594 433.96875 706.078125 432.972656 706.605469 431.972656 C 653.984375 428.496094 593.5 425.507812 529.804688 423.378906 C 533.472656 417.371094 535.246094 411.382812 535.070312 405.550781 C 555.910156 408.921875 576.847656 411.96875 597.890625 414.078125 C 631.648438 417.871094 665.535156 420.203125 699.566406 420.203125 C 703.988281 420.203125 708.410156 420.164062 712.84375 420.085938 C 713.984375 417.90625 715.105469 415.765625 716.203125 413.671875 C 710 425.5 703.015625 438.816406 695.949219 452.292969 C 697.824219 448.714844 699.695312 445.148438 701.546875 441.621094 C 632.792969 444.707031 539.953125 459.808594 485.9375 471.816406 C 478.976562 473.351562 470.558594 474.484375 468.933594 481.695312 C 466.867188 492.644531 485.527344 502.792969 495.441406 507.855469 M 511.054688 443.019531 C 513.210938 441.367188 515.234375 439.699219 517.109375 438.035156 C 523.121094 437.953125 529.132812 437.863281 535.152344 437.777344 C 526.863281 439.828125 518.820312 441.554688 511.054688 443.019531 M 716.734375 412.652344 C 677.558594 411.191406 638.285156 407.234375 599.304688 402.378906 C 576.632812 399.339844 554.027344 396.015625 531.359375 392.746094 C 527.144531 385.285156 519.332031 378.242188 507.78125 371.90625 C 549.566406 386.980469 637.714844 392.042969 703.863281 392.042969 C 712.195312 392.042969 720.171875 391.960938 727.671875 391.8125 C 724.507812 397.835938 720.800781 404.910156 716.734375 412.652344 " fill-opacity="1" fill-rule="nonzero"/><path fill="#dd7a40" d="M 206.574219 549.007812 C 206.535156 549.007812 206.5 549.003906 206.460938 549.003906 C 200.9375 548.75 195.734375 548.480469 190.765625 548.210938 C 165.648438 536.855469 144.582031 526.390625 119.699219 526.390625 C 111.671875 526.390625 103.246094 527.480469 94.164062 529.980469 C 92.367188 527.753906 90.742188 525.210938 89.214844 522.410156 C 101.644531 518.167969 113.066406 516.40625 123.738281 516.40625 C 158.117188 516.40625 184.652344 534.683594 211.585938 547.113281 C 209.464844 548.269531 207.707031 549.007812 206.574219 549.007812 " fill-opacity="1" fill-rule="nonzero"/><path fill="#dd7a40" d="M 236.957031 529.320312 C 199.660156 526.480469 184.5 519.746094 157.390625 513.683594 C 158.261719 513.683594 159.117188 513.683594 159.988281 513.683594 C 176.773438 513.683594 193.039062 513.398438 208.796875 512.84375 C 220.597656 515.113281 234.679688 517.136719 253.03125 518.59375 C 248.707031 520.878906 242.960938 524.917969 236.949219 529.320312 " fill-opacity="1" fill-rule="nonzero"/><path fill="#dd7a40" d="M 661 518.933594 C 655.398438 517.179688 649.589844 515.992188 643.789062 514.777344 C 595.339844 505.460938 548.707031 505.261719 542.488281 495.59375 C 534.117188 482.367188 596.417969 479.679688 646.699219 479.679688 C 659.488281 479.679688 671.507812 479.855469 681.378906 480.074219 C 680.277344 482.175781 679.183594 484.257812 678.109375 486.3125 C 677.785156 486.929688 677.464844 487.542969 677.140625 488.15625 C 643.476562 488.605469 616.039062 488.953125 595.070312 489.667969 C 574.101562 490.386719 574.964844 498.726562 593.019531 501.527344 C 609.214844 504.039062 627.589844 506.757812 644.703125 510.054688 C 650.902344 511.171875 657.039062 512.609375 663.507812 514.148438 C 663.136719 514.851562 662.773438 515.546875 662.414062 516.230469 C 661.933594 517.152344 661.460938 518.050781 661 518.933594 " fill-opacity="1" fill-rule="nonzero"/><path fill="#dd7a40" d="M 594.632812 545.082031 C 592.414062 543.988281 590.171875 542.929688 587.902344 541.925781 C 577.074219 537.25 565.757812 533.574219 554.28125 530.449219 C 524.597656 522.289062 449.507812 508.542969 387.785156 508.542969 C 384.039062 508.542969 380.332031 508.589844 376.699219 508.699219 C 367.992188 508.988281 359.09375 509.320312 350.195312 509.320312 C 346.886719 509.320312 343.578125 509.273438 340.28125 509.164062 C 324.195312 508.816406 309.363281 507.945312 295.574219 506.703125 C 320.671875 503.949219 343.980469 500.453125 365.351562 496.371094 C 383.792969 496.785156 401.734375 497.289062 412.941406 497.691406 C 441.71875 498.757812 468.390625 503.035156 495.441406 507.855469 C 485.527344 502.792969 466.867188 492.644531 468.933594 481.695312 C 470.558594 474.484375 478.976562 473.351562 485.9375 471.816406 C 539.953125 459.808594 632.792969 444.707031 701.546875 441.621094 C 699.695312 445.148438 697.824219 448.714844 695.949219 452.292969 C 695.921875 452.347656 695.894531 452.402344 695.863281 452.457031 C 644.265625 463.234375 587.503906 469.820312 534.722656 475.746094 C 525.8125 476.746094 479.691406 494.0625 510.179688 507.882812 C 527.890625 516.179688 525.144531 512.015625 556.886719 521.300781 C 568.617188 524.832031 580.183594 529.046875 591.371094 534.296875 C 596.945312 536.980469 602.453125 539.84375 607.691406 543.335938 C 607.929688 543.488281 608.140625 543.691406 608.375 543.847656 C 603.863281 544.292969 599.304688 544.703125 594.632812 545.082031 M 501.222656 449.855469 C 504.777344 447.59375 508.050781 445.316406 511.054688 443.019531 C 518.820312 441.554688 526.863281 439.828125 535.152344 437.777344 C 540.847656 437.695312 546.539062 437.609375 552.191406 437.523438 C 527.179688 443.496094 512.53125 447.191406 501.222656 449.855469 " fill-opacity="1" fill-rule="nonzero"/><path fill="#dd7a40" d="M 543.789062 547.917969 C 437.609375 531.808594 386.21875 528.191406 353.441406 528.191406 C 328.976562 528.191406 314.878906 530.210938 296.128906 530.550781 C 290.082031 530.660156 284.394531 530.710938 279.03125 530.710938 C 271.648438 530.710938 264.867188 530.613281 258.601562 530.429688 C 258.519531 525.777344 258.582031 521.535156 258.636719 519.011719 C 269.585938 519.777344 281.917969 520.359375 296.132812 520.679688 C 300.0625 520.777344 303.996094 520.824219 307.929688 520.824219 C 315.050781 520.824219 322.171875 520.671875 329.285156 520.394531 C 336.863281 520.0625 343.648438 519.71875 351.945312 519.71875 C 379.144531 519.71875 422.472656 523.449219 562.328125 543.71875 L 561.800781 547.160156 C 556.140625 547.433594 550.164062 547.683594 543.789062 547.917969 " fill-opacity="1" fill-rule="nonzero"/><path fill="#dd7a40" d="M 699.566406 420.203125 C 665.535156 420.203125 631.648438 417.871094 597.890625 414.078125 C 576.847656 411.96875 555.910156 408.921875 535.070312 405.550781 C 534.929688 401.183594 533.703125 396.902344 531.359375 392.746094 C 554.027344 396.015625 576.632812 399.339844 599.304688 402.378906 C 638.285156 407.234375 677.558594 411.191406 716.734375 412.652344 C 716.5625 412.992188 716.382812 413.328125 716.203125 413.671875 C 715.105469 415.765625 713.984375 417.90625 712.84375 420.085938 C 708.410156 420.164062 703.988281 420.203125 699.566406 420.203125 " fill-opacity="1" fill-rule="nonzero"/><path fill="#f59856" d="M 730.789062 385.859375 C 731.785156 383.960938 732.699219 382.222656 733.523438 380.652344 C 732.699219 382.222656 731.785156 383.964844 730.789062 385.859375 " fill-opacity="1" fill-rule="nonzero"/><path fill="#f5e0d0" d="M 741.351562 348.667969 C 741.351562 348.667969 741.351562 348.664062 741.351562 348.664062 C 740.421875 346.476562 739.199219 343.9375 737.667969 340.851562 C 731.722656 328.855469 722.753906 311.503906 712.980469 292.847656 C 722.753906 311.503906 731.722656 328.855469 737.667969 340.851562 C 739.199219 343.9375 740.421875 346.480469 741.351562 348.667969 M 710 287.152344 C 709.996094 287.144531 709.988281 287.132812 709.984375 287.125 C 709.988281 287.132812 709.996094 287.144531 710 287.152344 M 692.085938 285.175781 C 694.882812 285.039062 697.609375 284.925781 700.066406 284.925781 C 697.609375 284.925781 694.875 285.039062 692.085938 285.175781 M 700.078125 284.925781 L 700.074219 284.925781 L 700.078125 284.925781 " fill-opacity="1" fill-rule="nonzero"/><path fill="#a9461d" d="M 679.078125 285.6875 L 679.074219 285.6875 L 679.078125 285.6875 M 679.082031 285.6875 C 682.023438 285.6875 685.335938 285.527344 688.683594 285.351562 C 685.335938 285.527344 682.023438 285.6875 679.082031 285.6875 M 688.839844 285.347656 C 688.886719 285.34375 688.941406 285.339844 688.992188 285.339844 C 688.941406 285.339844 688.886719 285.34375 688.839844 285.347656 M 689.199219 285.324219 C 689.246094 285.324219 689.296875 285.320312 689.347656 285.320312 C 689.296875 285.320312 689.246094 285.324219 689.199219 285.324219 M 689.964844 285.285156 C 690.003906 285.285156 690.046875 285.28125 690.085938 285.28125 C 690.046875 285.28125 690.003906 285.285156 689.964844 285.285156 M 690.132812 285.277344 C 690.203125 285.273438 690.269531 285.269531 690.339844 285.269531 C 690.269531 285.269531 690.203125 285.273438 690.132812 285.277344 M 690.484375 285.257812 C 691.019531 285.230469 691.550781 285.203125 692.085938 285.175781 C 691.550781 285.203125 691.019531 285.230469 690.484375 285.257812 " fill-opacity="1" fill-rule="nonzero"/><path fill="#6a2c0e" d="M 743.5 356.171875 C 743.453125 355.625 743.378906 355.066406 743.265625 354.496094 C 743.265625 354.496094 743.265625 354.496094 743.265625 354.492188 C 743.378906 355.066406 743.453125 355.625 743.5 356.171875 " fill-opacity="1" fill-rule="nonzero"/><path fill="#f59856" d="M 698.570312 379.523438 C 638.28125 379.523438 599.957031 375.066406 560.199219 367.382812 C 519.8125 359.578125 533.339844 342.804688 544.285156 341.289062 C 568.742188 338.539062 650.734375 317.144531 714.953125 296.617188 C 713.675781 294.175781 712.382812 291.707031 711.082031 289.214844 C 624.78125 314.390625 581.75 327.972656 543.019531 331.003906 C 522.75 333.269531 501.472656 335.15625 489.921875 341.488281 C 481.195312 346.980469 479.90625 355.808594 493.523438 365.214844 C 472.199219 356.601562 461.351562 346.355469 457.796875 335.25 C 466.15625 332.636719 474.664062 330.421875 483.332031 328.371094 C 518.347656 320.160156 553.734375 312.433594 588.792969 303.875 C 604.90625 299.984375 665.582031 285.261719 669.78125 284.238281 C 671.382812 285.351562 674.824219 285.6875 679.074219 285.6875 L 679.082031 285.6875 C 682.023438 285.6875 685.335938 285.527344 688.683594 285.351562 C 688.734375 285.351562 688.789062 285.347656 688.839844 285.347656 C 688.886719 285.34375 688.941406 285.339844 688.992188 285.339844 C 689.0625 285.332031 689.128906 285.328125 689.199219 285.324219 C 689.246094 285.324219 689.296875 285.320312 689.347656 285.320312 C 689.425781 285.316406 689.503906 285.3125 689.585938 285.308594 C 689.710938 285.296875 689.835938 285.292969 689.964844 285.285156 C 690.003906 285.285156 690.046875 285.28125 690.085938 285.28125 C 690.101562 285.28125 690.117188 285.277344 690.132812 285.277344 C 690.203125 285.273438 690.269531 285.269531 690.339844 285.269531 C 690.386719 285.265625 690.4375 285.261719 690.484375 285.257812 C 691.019531 285.230469 691.550781 285.203125 692.085938 285.175781 C 694.875 285.039062 697.609375 284.925781 700.066406 284.925781 L 700.078125 284.925781 C 705.132812 284.925781 709.042969 285.40625 709.984375 287.125 C 709.988281 287.132812 709.996094 287.144531 710 287.152344 C 711.003906 289.058594 711.992188 290.960938 712.980469 292.847656 C 722.753906 311.503906 731.722656 328.855469 737.667969 340.851562 C 739.199219 343.9375 740.421875 346.476562 741.351562 348.664062 C 741.222656 348.398438 741.089844 348.117188 740.945312 347.820312 C 711.660156 353.296875 696.382812 355.226562 684.261719 355.226562 C 669.46875 355.226562 659.371094 352.355469 634.253906 349.5625 C 623.328125 348.351562 620.285156 342.832031 632.191406 338.640625 C 658.847656 329.25 693.953125 315.988281 721.449219 309.082031 C 720.773438 307.78125 720.082031 306.445312 719.390625 305.121094 C 710.464844 308.582031 674.488281 317.601562 648.367188 324.617188 C 587.980469 340.242188 589.285156 336.082031 576.898438 338.671875 C 573.003906 339.453125 571.007812 340.453125 569.632812 341.4375 C 567.136719 343.347656 566.046875 345.574219 565.898438 347.804688 C 564.339844 363.050781 617.296875 366.296875 626.773438 366.34375 C 627.863281 366.359375 629.140625 366.371094 630.574219 366.371094 C 650.363281 366.371094 700.773438 364.667969 743.382812 355.871094 C 743.332031 355.324219 743.296875 354.878906 743.265625 354.496094 C 743.378906 355.066406 743.453125 355.625 743.5 356.171875 C 743.859375 360.6875 741.9375 364.601562 737.886719 372.328125 C 737.242188 373.5625 736.027344 375.871094 734.355469 379.058594 C 721.585938 379.371094 709.699219 379.523438 698.570312 379.523438 M 456.535156 324.273438 C 456.753906 321.171875 457.421875 318.027344 458.484375 314.851562 C 479.222656 308.046875 499.699219 300.480469 519.988281 292.199219 C 550.511719 291.203125 575.863281 290.046875 596.480469 288.910156 C 516.425781 306.714844 548.8125 302.414062 480.8125 317.730469 C 472.722656 319.558594 464.578125 321.726562 456.535156 324.273438 " fill-opacity="1" fill-rule="nonzero"/><path fill="#dd7a40" d="M 457.796875 335.25 C 456.652344 331.671875 456.265625 328.003906 456.535156 324.273438 C 464.578125 321.726562 472.722656 319.558594 480.8125 317.730469 C 548.8125 302.414062 516.425781 306.714844 596.480469 288.910156 C 633.75 286.851562 655.507812 284.84375 664.367188 283.9375 C 666.011719 283.890625 667.660156 283.847656 669.292969 283.804688 C 669.425781 283.960938 669.59375 284.105469 669.78125 284.238281 C 665.582031 285.261719 604.90625 299.984375 588.792969 303.875 C 553.734375 312.433594 518.347656 320.160156 483.332031 328.371094 C 474.664062 330.421875 466.15625 332.636719 457.796875 335.25 " fill-opacity="1" fill-rule="nonzero"/><path fill="#f59856" d="M 461.460938 307.753906 C 463.816406 303.039062 466.914062 298.285156 470.566406 293.539062 C 482.015625 293.289062 492.90625 293.007812 503.273438 292.710938 C 489.605469 298.375 475.625 303.359375 461.460938 307.753906 " fill-opacity="1" fill-rule="nonzero"/><path fill="#dd7a40" d="M 630.574219 366.371094 C 629.140625 366.371094 627.863281 366.359375 626.773438 366.34375 C 617.296875 366.296875 564.339844 363.050781 565.898438 347.804688 C 566.046875 345.574219 567.136719 343.347656 569.632812 341.4375 C 571.007812 340.453125 573.003906 339.453125 576.898438 338.671875 C 589.285156 336.082031 587.980469 340.242188 648.367188 324.617188 C 674.488281 317.601562 710.464844 308.582031 719.390625 305.121094 C 720.082031 306.445312 720.773438 307.78125 721.449219 309.082031 C 693.953125 315.988281 658.847656 329.25 632.191406 338.640625 C 620.285156 342.832031 623.328125 348.351562 634.253906 349.5625 C 659.371094 352.355469 669.46875 355.226562 684.261719 355.226562 C 696.382812 355.226562 711.660156 353.296875 740.945312 347.820312 C 741.089844 348.117188 741.222656 348.398438 741.351562 348.664062 C 741.351562 348.664062 741.351562 348.667969 741.351562 348.667969 C 742.300781 350.902344 742.933594 352.773438 743.265625 354.492188 C 743.265625 354.496094 743.265625 354.496094 743.265625 354.496094 C 743.296875 354.878906 743.332031 355.324219 743.382812 355.871094 C 700.773438 364.667969 650.363281 366.371094 630.574219 366.371094 " fill-opacity="1" fill-rule="nonzero"/><path fill="#dd7a40" d="M 703.863281 392.042969 C 637.714844 392.042969 549.566406 386.980469 507.78125 371.90625 C 503.539062 369.574219 498.785156 367.339844 493.523438 365.214844 C 479.90625 355.808594 481.195312 346.980469 489.921875 341.488281 C 501.472656 335.15625 522.75 333.269531 543.019531 331.003906 C 581.75 327.972656 624.78125 314.390625 711.082031 289.214844 C 712.382812 291.707031 713.675781 294.175781 714.953125 296.617188 C 650.734375 317.144531 568.742188 338.539062 544.285156 341.289062 C 533.339844 342.804688 519.8125 359.578125 560.199219 367.382812 C 599.957031 375.066406 638.28125 379.523438 698.570312 379.523438 C 709.699219 379.523438 721.585938 379.371094 734.355469 379.058594 C 734.089844 379.566406 733.8125 380.097656 733.523438 380.652344 C 732.699219 382.222656 731.785156 383.960938 730.789062 385.859375 C 729.824219 387.707031 728.785156 389.691406 727.671875 391.8125 C 720.171875 391.960938 712.195312 392.042969 703.863281 392.042969 " fill-opacity="1" fill-rule="nonzero"/><path fill="#dd7a40" d="M 458.484375 314.851562 C 459.269531 312.5 460.269531 310.132812 461.460938 307.753906 C 475.625 303.359375 489.605469 298.375 503.273438 292.710938 C 509.007812 292.542969 514.582031 292.375 519.988281 292.199219 C 499.699219 300.480469 479.222656 308.046875 458.484375 314.851562 " fill-opacity="1" fill-rule="nonzero"/><path fill="#f59856" d="M 668.679688 282.476562 C 653.214844 281.484375 637.066406 280.550781 620.398438 279.683594 C 594.671875 275.066406 562.398438 269.621094 533.527344 264.363281 C 522.546875 262.359375 514.742188 258.570312 510.625 254.289062 C 520.222656 246.332031 529.820312 238.855469 538.191406 232.160156 C 573.671875 226.648438 619.269531 221.042969 671.691406 214.792969 C 670.328125 212.230469 669.042969 209.816406 667.871094 207.605469 C 672.316406 215.960938 678.203125 227.015625 684.746094 239.347656 C 683.636719 237.265625 682.5625 235.234375 681.496094 233.226562 C 629.4375 233.492188 561.011719 233.726562 556.753906 240.242188 C 555.761719 241.429688 556.152344 244.34375 556.59375 244.617188 C 559.101562 249.710938 582.886719 251.984375 628.691406 259.238281 C 650.5 262.65625 665.496094 264.972656 676.636719 266.792969 C 671.929688 272.855469 667.8125 278.710938 668.679688 282.476562 M 563.234375 277.039062 C 538.78125 276.046875 513.554688 275.1875 487.875 274.476562 C 490.347656 272.078125 492.890625 269.699219 495.492188 267.347656 C 514.792969 270.550781 538.714844 273.738281 563.234375 277.039062 M 680.761719 261.53125 C 658.757812 260.015625 642.0625 255.300781 621.785156 252.402344 C 607.800781 250.402344 606.191406 241.859375 620.5 241.226562 C 639.363281 240.394531 661.394531 239.761719 684.875 239.585938 C 685.941406 241.605469 687.035156 243.65625 688.136719 245.738281 C 689.9375 249.132812 685.734375 255.140625 680.761719 261.53125 M 554.09375 218.867188 C 556.089844 217.054688 557.847656 215.355469 559.324219 213.777344 C 593.519531 209.03125 627.425781 202.320312 661.191406 195.023438 C 662.628906 197.742188 664.882812 201.992188 667.75 207.378906 C 630.609375 210.859375 590.03125 214.457031 554.09375 218.867188 " fill-opacity="1" fill-rule="nonzero"/><path fill="#dd7a40" d="M 676.636719 266.792969 C 665.496094 264.972656 650.5 262.65625 628.691406 259.238281 C 582.886719 251.984375 559.101562 249.710938 556.59375 244.617188 C 556.152344 244.34375 555.761719 241.429688 556.753906 240.242188 C 561.011719 233.726562 629.4375 233.492188 681.496094 233.226562 C 682.5625 235.234375 683.636719 237.265625 684.746094 239.347656 C 684.789062 239.425781 684.828125 239.507812 684.875 239.585938 C 661.394531 239.761719 639.363281 240.394531 620.5 241.226562 C 606.191406 241.859375 607.800781 250.402344 621.785156 252.402344 C 642.0625 255.300781 658.757812 260.015625 680.761719 261.53125 C 679.410156 263.273438 677.996094 265.042969 676.636719 266.792969 " fill-opacity="1" fill-rule="nonzero"/><path fill="#dd7a40" d="M 620.398438 279.683594 C 601.949219 278.71875 582.84375 277.835938 563.234375 277.039062 C 538.714844 273.738281 514.792969 270.550781 495.492188 267.347656 C 500.417969 262.886719 505.523438 258.519531 510.625 254.289062 C 514.742188 258.570312 522.546875 262.359375 533.527344 264.363281 C 562.398438 269.621094 594.671875 275.066406 620.398438 279.683594 M 538.191406 232.160156 C 544.296875 227.273438 549.75 222.808594 554.09375 218.867188 C 590.03125 214.457031 630.609375 210.859375 667.75 207.378906 C 667.785156 207.453125 667.828125 207.53125 667.871094 207.605469 C 669.042969 209.816406 670.328125 212.230469 671.691406 214.792969 C 619.269531 221.042969 573.671875 226.648438 538.191406 232.160156 " fill-opacity="1" fill-rule="nonzero"/><g clip-path="url(#7617b10440)"><path fill="#f5e0d0" d="M 659.953125 192.683594 C 650.421875 175.09375 638.292969 170.925781 621.351562 170.925781 C 638.292969 170.925781 650.421875 175.09375 659.953125 192.683594 M 621.351562 170.925781 C 597.75 170.925781 560.503906 169.996094 516.800781 168.816406 C 560.503906 169.996094 597.75 170.925781 621.351562 170.925781 M 496.484375 168.261719 C 496.394531 168.261719 496.300781 168.257812 496.210938 168.253906 C 423.6875 166.277344 337.582031 163.914062 266.910156 163.886719 C 337.664062 163.914062 423.910156 166.28125 496.484375 168.261719 " fill-opacity="1" fill-rule="nonzero"/></g><g clip-path="url(#cb2e80b5f6)"><path fill="#f59856" d="M 564.453125 205.757812 C 564.820312 203.050781 562.609375 201.34375 556.992188 200.832031 C 553.941406 200.558594 550.261719 200.1875 546.027344 199.738281 C 569.121094 196.292969 592.015625 191.765625 614.820312 186.929688 C 626.296875 184.429688 637.742188 181.804688 649.15625 179.058594 C 643.414062 174.34375 636.824219 172.132812 629.152344 171.347656 C 596.851562 177.136719 564.636719 183.265625 532.507812 189.6875 C 523.523438 191.476562 514.535156 193.308594 505.527344 195.039062 C 486.597656 192.738281 464.734375 189.988281 442.074219 187.085938 C 447.40625 185.890625 452.671875 184.589844 457.824219 183.285156 L 494.289062 174.097656 C 501.785156 172.277344 509.296875 170.5625 516.800781 168.816406 C 560.503906 169.996094 597.75 170.925781 621.351562 170.925781 C 638.292969 170.925781 650.421875 175.09375 659.953125 192.683594 C 660.105469 192.960938 660.257812 193.246094 660.40625 193.53125 C 659.644531 192.082031 658.835938 190.867188 658.046875 189.589844 C 627.261719 197.09375 595.988281 202.523438 564.453125 205.757812 M 376.964844 178.609375 C 376.875 178.609375 376.789062 178.609375 376.703125 178.609375 C 316.746094 170.753906 265.835938 163.886719 265.835938 163.886719 C 266.195312 163.886719 266.550781 163.886719 266.910156 163.886719 C 337.582031 163.914062 423.6875 166.277344 496.210938 168.253906 C 493.976562 168.195312 491.730469 168.132812 489.46875 168.070312 L 455.902344 173.1875 C 443.414062 175.144531 431.425781 176.9375 419.128906 177.445312 C 405.144531 178.3125 391.078125 178.609375 376.964844 178.609375 " fill-opacity="1" fill-rule="nonzero"/></g><path fill="#dd7a40" d="M 442.074219 187.085938 C 420.386719 184.308594 397.980469 181.398438 376.703125 178.609375 C 376.789062 178.609375 376.875 178.609375 376.964844 178.609375 C 391.078125 178.609375 405.144531 178.3125 419.128906 177.445312 C 431.425781 176.9375 443.414062 175.144531 455.902344 173.1875 L 489.46875 168.070312 C 491.730469 168.132812 493.976562 168.195312 496.210938 168.253906 C 496.300781 168.257812 496.394531 168.261719 496.484375 168.261719 C 503.394531 168.453125 510.164062 168.636719 516.800781 168.816406 C 509.296875 170.5625 501.785156 172.277344 494.289062 174.097656 L 457.824219 183.285156 C 452.671875 184.589844 447.40625 185.890625 442.074219 187.085938 " fill-opacity="1" fill-rule="nonzero"/><path fill="#f59856" d="M 660.445312 193.613281 C 660.433594 193.585938 660.421875 193.554688 660.40625 193.53125 C 660.421875 193.558594 660.433594 193.585938 660.445312 193.613281 " fill-opacity="1" fill-rule="nonzero"/><path fill="#dd7a40" d="M 546.027344 199.738281 C 535.5 198.613281 521.5625 196.988281 505.527344 195.039062 C 514.535156 193.308594 523.523438 191.476562 532.507812 189.6875 C 564.636719 183.265625 596.851562 177.136719 629.152344 171.347656 C 636.824219 172.132812 643.414062 174.34375 649.15625 179.058594 C 637.742188 181.804688 626.296875 184.429688 614.820312 186.929688 C 592.015625 191.765625 569.121094 196.292969 546.027344 199.738281 " fill-opacity="1" fill-rule="nonzero"/><path fill="#dd7a40" d="M 559.324219 213.777344 C 562.332031 210.566406 564.167969 207.863281 564.453125 205.757812 C 595.988281 202.523438 627.261719 197.09375 658.046875 189.589844 C 658.835938 190.867188 659.644531 192.082031 660.40625 193.53125 C 660.421875 193.554688 660.433594 193.585938 660.445312 193.613281 C 660.664062 194.023438 660.914062 194.496094 661.191406 195.023438 C 627.425781 202.320312 593.519531 209.03125 559.324219 213.777344 " fill-opacity="1" fill-rule="nonzero"/><path fill="#f5b183" d="M 470.566406 293.539062 C 472.429688 291.117188 474.433594 288.695312 476.558594 286.28125 C 541.367188 286.121094 605.484375 285.453125 664.367188 283.9375 C 655.507812 284.84375 633.75 286.851562 596.480469 288.910156 C 575.863281 290.046875 550.511719 291.203125 519.988281 292.199219 C 514.582031 292.375 509.007812 292.542969 503.273438 292.710938 C 492.90625 293.007812 482.015625 293.289062 470.566406 293.539062 " fill-opacity="1" fill-rule="nonzero"/><path fill="#6a2c0e" d="M 476.558594 286.28125 C 480.046875 282.316406 483.863281 278.367188 487.875 274.476562 C 513.554688 275.1875 538.78125 276.046875 563.234375 277.039062 C 582.84375 277.835938 601.949219 278.71875 620.398438 279.683594 C 637.066406 280.550781 653.214844 281.484375 668.679688 282.476562 C 668.757812 282.808594 668.875 283.128906 669.03125 283.425781 C 669.101562 283.558594 669.191406 283.6875 669.292969 283.804688 C 667.660156 283.847656 666.011719 283.890625 664.367188 283.9375 C 605.484375 285.453125 541.367188 286.121094 476.558594 286.28125 " fill-opacity="1" fill-rule="nonzero"/><path fill="#f5b183" d="M 517.109375 438.035156 C 518.203125 437.0625 519.25 436.085938 520.246094 435.109375 C 549.621094 435.265625 579.214844 435.363281 608.90625 435.363281 C 640.910156 435.363281 672.996094 435.25 705.027344 434.980469 C 705.027344 434.980469 631.917969 436.320312 552.191406 437.523438 C 546.539062 437.609375 540.847656 437.695312 535.152344 437.777344 C 529.132812 437.863281 523.121094 437.953125 517.109375 438.035156 " fill-opacity="1" fill-rule="nonzero"/><path fill="#6a2c0e" d="M 608.90625 435.363281 C 579.214844 435.363281 549.621094 435.265625 520.246094 435.109375 C 524.230469 431.207031 527.417969 427.289062 529.804688 423.378906 C 593.5 425.507812 653.984375 428.496094 706.605469 431.972656 C 706.078125 432.972656 705.558594 433.96875 705.027344 434.980469 C 672.996094 435.25 640.910156 435.363281 608.90625 435.363281 " fill-opacity="1" fill-rule="nonzero"/><g clip-path="url(#b1e87fc5a8)"><path fill="#ffcaa1" d="M 110.007812 181.371094 C 124.371094 174.675781 198.511719 164.445312 200.785156 164.175781 C 200.386719 164.058594 199.921875 163.886719 199.683594 163.886719 C 159.515625 163.886719 132.613281 170.925781 128.570312 170.925781 C 110.136719 170.925781 98.257812 174.535156 87.777344 193.867188 C 82.609375 203.398438 61.792969 243.136719 41.996094 280.976562 C 41.996094 280.976562 97.285156 187.304688 110.007812 181.371094 " fill-opacity="1" fill-rule="nonzero"/></g><path fill="#ffcaa1" d="M 688.136719 245.738281 C 674.898438 220.777344 663.6875 199.789062 660.40625 193.53125 C 650.808594 175.226562 638.558594 170.925781 621.351562 170.925781 C 563.988281 170.925781 426.066406 165.449219 310.648438 164.160156 C 312.160156 164.210938 454.914062 169.03125 499.5 174.675781 C 544.328125 180.347656 618.25 175.441406 633.976562 182.523438 C 654.621094 191.828125 681.828125 240.277344 688.386719 248.761719 C 688.601562 247.625 688.585938 246.585938 688.136719 245.738281 " fill-opacity="1" fill-rule="nonzero"/><path fill="#ffcaa1" d="M 96.808594 519.796875 C 91.015625 511.105469 51.875 448.828125 51.757812 448.644531 L 51.75 451.097656 C 63.601562 473.554688 80.539062 505.996094 88.6875 521.507812 C 95.453125 534.386719 104.402344 541.445312 119.441406 542.671875 C 130.957031 543.613281 157.648438 546.753906 206.460938 549.003906 C 206.460938 549.003906 144.390625 537.792969 127.5625 537.792969 C 110.734375 537.792969 102.609375 528.507812 96.808594 519.796875 " fill-opacity="1" fill-rule="nonzero"/><path fill="#ffcaa1" d="M 38.023438 288.5625 C 27.570312 308.542969 17.722656 327.371094 11.015625 340.160156 C 2.292969 356.796875 3.402344 356.796875 13.273438 377.671875 C 15.746094 382.894531 27.179688 407.46875 39.363281 428.144531 C 39.363281 428.144531 13.832031 362.480469 15.441406 355.183594 C 17.054688 347.886719 38.019531 288.574219 38.023438 288.5625 " fill-opacity="1" fill-rule="nonzero"/></svg>